<?xml version="1.0" standalone="no"?>
<!DOCTYPE svg PUBLIC "-//W3C//DTD SVG 20010904//EN"
 "http://www.w3.org/TR/2001/REC-SVG-20010904/DTD/svg10.dtd">
<svg version="1.0" xmlns="http://www.w3.org/2000/svg"
 width="3712.000000pt" height="2488.000000pt" viewBox="0 0 3712.000000 2488.000000"
 preserveAspectRatio="xMidYMid meet">

<g transform="translate(0.000000,2488.000000) scale(0.100000,-0.100000)"
fill="#000000" stroke="none">
<path d="M9375 17860 c4 -6 -13 -10 -44 -10 -28 0 -51 -4 -51 -10 0 -5 -20
-10 -44 -10 -25 0 -48 -4 -51 -10 -3 -5 -24 -10 -46 -10 -21 0 -39 -4 -39 -10
0 -6 -88 -10 -244 -10 -153 0 -247 -4 -251 -10 -3 -5 -26 -10 -51 -10 -24 0
-44 -4 -44 -10 0 -5 -13 -10 -30 -10 -16 0 -30 -4 -30 -10 0 -5 -9 -10 -20
-10 -11 0 -20 -4 -20 -10 0 -5 -9 -10 -20 -10 -11 0 -20 -3 -20 -8 0 -4 -13
-13 -29 -20 -15 -7 -48 -30 -72 -52 -52 -47 -82 -73 -132 -117 -21 -18 -35
-33 -32 -33 3 0 -4 -11 -17 -24 -31 -32 -58 -65 -58 -72 0 -3 -11 -16 -25 -30
-14 -14 -25 -28 -25 -32 0 -4 -15 -24 -32 -43 -18 -19 -45 -50 -59 -69 -15
-19 -36 -45 -47 -58 -11 -13 -35 -42 -54 -64 -18 -23 -42 -51 -53 -63 -11 -12
-25 -30 -32 -41 -6 -10 -16 -18 -23 -16 -6 1 -9 -2 -6 -7 3 -5 -13 -25 -35
-45 -23 -20 -39 -36 -35 -36 7 0 -1 -9 -82 -96 -26 -29 -72 -80 -102 -115 -77
-88 -131 -149 -157 -177 -13 -12 -23 -26 -23 -30 0 -4 -29 -37 -64 -74 -35
-36 -62 -69 -58 -72 3 -3 -3 -6 -13 -6 -10 0 -16 -3 -12 -6 3 -3 -13 -26 -36
-50 -87 -91 -107 -114 -102 -114 3 0 -14 -20 -37 -44 -47 -48 -76 -80 -158
-176 -30 -36 -68 -77 -84 -92 -15 -16 -25 -28 -20 -28 4 0 -12 -19 -37 -43
-24 -24 -51 -54 -59 -67 -8 -13 -33 -41 -55 -64 -22 -23 -56 -61 -75 -86 -19
-25 -50 -61 -68 -80 -19 -19 -61 -69 -95 -110 -34 -41 -66 -78 -72 -82 -5 -4
-7 -8 -3 -8 7 0 -18 -33 -50 -66 -7 -8 -11 -14 -8 -14 6 0 -23 -36 -52 -66 -7
-8 -11 -14 -7 -14 3 0 -6 -11 -20 -25 -14 -14 -25 -30 -25 -35 0 -5 -10 -19
-23 -32 -12 -13 -33 -39 -47 -58 -13 -19 -36 -46 -50 -60 -39 -39 -150 -174
-182 -222 -16 -24 -34 -51 -41 -62 -6 -10 -18 -25 -25 -32 -7 -8 -11 -14 -7
-14 3 0 1 -6 -5 -12 -24 -29 -60 -84 -66 -100 -4 -10 -9 -18 -13 -18 -4 0 -15
-14 -25 -30 -9 -17 -22 -28 -27 -24 -6 3 -9 0 -7 -7 3 -16 -32 -79 -44 -79 -4
0 -8 -7 -8 -15 0 -8 -4 -15 -10 -15 -5 0 -10 -7 -10 -15 0 -8 -3 -15 -8 -15
-4 0 -18 -18 -32 -40 -14 -22 -28 -40 -32 -40 -5 0 -8 -6 -8 -13 0 -7 -9 -23
-20 -35 -11 -12 -20 -25 -20 -30 0 -5 -13 -23 -30 -40 -16 -18 -30 -36 -30
-42 0 -5 -16 -27 -35 -47 -19 -20 -33 -39 -31 -41 3 -2 -11 -20 -30 -40 -19
-20 -34 -40 -34 -44 0 -5 -13 -23 -30 -41 -16 -17 -51 -59 -77 -92 -26 -33
-52 -65 -58 -71 -5 -6 -37 -42 -70 -79 -129 -148 -230 -247 -233 -229 -2 9 0
19 5 23 9 6 29 63 54 156 6 22 15 50 20 63 5 13 9 34 9 47 0 13 5 27 10 30 6
3 10 19 10 35 0 16 5 32 10 35 6 3 10 19 10 36 0 16 5 29 11 29 7 0 9 9 6 21
-6 24 1 51 12 44 4 -2 8 10 8 28 1 36 10 82 23 112 9 21 18 59 27 113 3 18 9
35 14 38 5 3 9 18 9 34 0 16 4 32 10 35 6 3 10 19 10 35 0 16 4 32 10 35 6 3
10 21 10 40 0 19 5 37 10 40 6 3 10 17 10 31 0 13 4 32 9 42 14 29 31 87 31
110 0 11 5 24 10 27 6 3 10 19 10 35 0 16 4 32 10 35 6 3 10 21 10 40 0 19 5
37 10 40 6 3 10 19 10 35 0 16 5 32 10 35 6 3 10 19 10 36 0 16 5 29 10 29 6
0 10 18 10 40 0 22 5 40 10 40 6 0 10 16 10 35 0 19 5 35 10 35 6 0 10 16 10
35 0 19 5 35 10 35 6 0 10 15 10 34 0 19 5 38 10 41 6 3 10 22 10 41 0 19 5
34 10 34 6 0 10 16 10 35 0 19 5 35 10 35 6 0 10 18 10 40 0 22 5 40 10 40 6
0 10 16 10 36 0 21 4 33 10 29 6 -3 10 5 10 19 0 13 5 37 11 53 13 32 43 147
65 243 8 36 19 82 24 103 6 20 15 55 20 77 6 22 14 57 20 78 5 20 14 60 20 87
7 28 16 68 22 90 5 22 12 54 14 70 3 17 9 39 14 50 9 21 17 61 27 130 3 22 9
44 14 49 5 6 9 29 9 52 0 24 5 46 10 49 6 3 10 25 10 49 0 23 4 46 9 52 5 5
12 29 15 54 3 25 10 74 16 110 6 36 13 92 16 125 3 33 9 69 14 80 26 57 26
525 -1 525 -5 0 -9 14 -9 30 0 17 -4 30 -10 30 -5 0 -10 8 -10 18 0 35 -34 55
-82 48 -24 -3 -70 -9 -103 -12 -33 -3 -64 -10 -70 -15 -5 -5 -22 -9 -39 -9
-29 0 -39 -2 -147 -35 -46 -14 -78 -16 -190 -10 -304 15 -398 9 -504 -35 -11
-5 -34 -14 -51 -21 -18 -7 -42 -30 -55 -51 -13 -21 -27 -38 -31 -38 -5 0 -8
-7 -8 -15 0 -8 -4 -15 -10 -15 -5 0 -10 -5 -10 -11 0 -16 -26 -39 -35 -31 -5
4 -5 2 -2 -5 4 -6 0 -18 -8 -26 -8 -9 -15 -20 -15 -26 0 -6 -4 -11 -10 -11 -5
0 -10 -4 -10 -10 0 -9 -19 -35 -47 -65 -7 -8 -13 -16 -13 -19 0 -3 -7 -14 -15
-23 -28 -34 -132 -178 -161 -223 -16 -25 -37 -54 -47 -64 -9 -11 -17 -26 -17
-33 0 -7 -3 -13 -7 -13 -5 0 -24 -25 -43 -55 -19 -30 -38 -55 -42 -55 -5 0 -8
-5 -8 -10 0 -6 -9 -20 -20 -32 -11 -12 -20 -28 -20 -35 0 -7 -3 -13 -7 -13 -5
0 -24 -25 -43 -55 -19 -30 -38 -55 -42 -55 -5 0 -8 -6 -8 -13 0 -8 -9 -22 -20
-32 -11 -10 -20 -24 -20 -32 0 -7 -4 -13 -10 -13 -5 0 -10 -7 -10 -15 0 -8 -4
-15 -10 -15 -5 0 -10 -7 -10 -15 0 -8 -4 -15 -10 -15 -5 0 -10 -7 -10 -16 0
-8 -4 -12 -10 -9 -5 3 -10 -2 -10 -12 0 -10 -9 -25 -19 -33 -11 -7 -18 -17
-15 -22 3 -4 1 -8 -4 -8 -5 0 -15 -13 -22 -30 -7 -16 -16 -30 -21 -30 -4 0
-11 -9 -14 -20 -3 -11 -12 -26 -18 -32 -7 -7 -25 -33 -42 -58 -16 -25 -38 -54
-47 -64 -10 -11 -18 -26 -18 -33 0 -7 -4 -13 -9 -13 -5 0 -16 -15 -25 -34 -8
-18 -22 -39 -31 -46 -8 -7 -15 -18 -15 -25 0 -6 -9 -20 -20 -30 -11 -10 -20
-22 -20 -27 0 -18 -67 -108 -75 -100 -5 4 -5 2 -2 -4 7 -13 -27 -67 -36 -57
-4 3 -7 -3 -7 -15 0 -11 -3 -22 -7 -24 -5 -1 -19 -23 -33 -48 -13 -25 -32 -54
-42 -64 -10 -11 -18 -26 -18 -35 0 -8 -3 -11 -7 -8 -4 4 -15 -10 -24 -30 -10
-21 -19 -33 -19 -28 0 6 -8 -6 -17 -25 -10 -19 -25 -44 -35 -54 -10 -11 -18
-24 -18 -29 0 -4 -13 -28 -30 -52 -16 -24 -30 -48 -30 -54 0 -6 -4 -11 -10
-11 -5 0 -10 -6 -10 -13 0 -7 -9 -23 -20 -35 -11 -12 -20 -28 -20 -37 0 -8 -4
-15 -10 -15 -5 0 -10 -7 -10 -15 0 -8 -4 -15 -10 -15 -5 0 -10 -7 -10 -15 0
-8 -4 -15 -10 -15 -5 0 -10 -9 -10 -20 0 -11 -4 -20 -10 -20 -5 0 -10 -7 -10
-15 0 -8 -4 -15 -8 -15 -5 0 -14 -16 -22 -35 -8 -19 -17 -35 -22 -35 -4 0 -8
-7 -8 -15 0 -8 -4 -15 -9 -15 -5 0 -11 -8 -15 -17 -11 -33 -43 -82 -50 -76 -3
3 -6 0 -6 -8 0 -20 -23 -69 -32 -69 -5 0 -8 -7 -8 -16 0 -8 -4 -12 -10 -9 -5
3 -10 -1 -10 -10 0 -17 -20 -56 -33 -66 -5 -3 -8 -9 -8 -13 3 -20 0 -26 -10
-21 -6 4 -9 0 -7 -11 2 -11 -2 -18 -9 -16 -7 1 -13 -3 -13 -10 0 -22 -43 -107
-51 -102 -5 3 -6 -2 -3 -10 3 -9 1 -16 -4 -16 -6 0 -19 -17 -29 -37 -9 -21
-19 -40 -22 -43 -4 -3 -12 -16 -19 -29 -36 -63 -51 -89 -76 -131 -15 -25 -29
-53 -33 -62 -3 -10 -9 -18 -14 -18 -5 0 -9 -9 -9 -20 0 -11 -4 -20 -10 -20 -5
0 -10 -7 -10 -15 0 -8 -4 -15 -10 -15 -5 0 -10 -7 -10 -15 0 -8 -4 -15 -10
-15 -5 0 -10 -6 -10 -14 0 -21 -26 -67 -33 -59 -4 3 -7 -3 -7 -15 0 -12 -3
-22 -8 -22 -4 0 -15 -17 -24 -39 -9 -21 -23 -45 -30 -52 -8 -8 -26 -40 -42
-72 -15 -31 -33 -63 -39 -70 -7 -6 -23 -33 -36 -59 -13 -27 -28 -48 -33 -48
-4 0 -7 -3 -6 -7 4 -12 -73 -157 -90 -169 -8 -6 -12 -16 -8 -22 4 -7 1 -12 -8
-12 -9 0 -16 -9 -16 -20 0 -11 -3 -20 -7 -20 -5 0 -13 -10 -19 -23 -27 -54
-76 -142 -82 -147 -4 -3 -14 -18 -22 -35 -8 -16 -17 -32 -20 -35 -5 -5 -43
-75 -64 -117 -6 -13 -14 -23 -18 -23 -5 0 -8 -6 -8 -14 0 -17 -41 -96 -50 -96
-3 0 -12 -16 -20 -35 -7 -19 -17 -32 -22 -29 -5 3 -8 2 -7 -3 4 -22 -3 -41
-21 -61 -12 -12 -18 -22 -14 -22 4 0 0 -8 -9 -17 -8 -10 -16 -21 -17 -25 -2
-19 -16 -46 -42 -85 -15 -23 -28 -46 -28 -52 0 -6 -4 -11 -10 -11 -5 0 -10 -9
-10 -20 0 -11 -3 -20 -8 -20 -4 0 -15 -17 -25 -37 -10 -21 -31 -58 -46 -83
-16 -25 -30 -51 -30 -57 -1 -7 -5 -13 -11 -13 -5 0 -10 -7 -10 -15 0 -14 -18
-53 -30 -65 -3 -3 -16 -27 -30 -55 -14 -27 -28 -51 -32 -53 -5 -2 -8 -12 -8
-22 0 -10 -3 -20 -8 -22 -4 -2 -23 -34 -42 -73 -19 -38 -38 -71 -42 -73 -5 -2
-8 -12 -8 -23 0 -10 -4 -19 -10 -19 -5 0 -10 -11 -10 -25 0 -14 -5 -25 -10
-25 -6 0 -9 -3 -9 -7 4 -23 -2 -43 -11 -38 -6 4 -10 3 -9 -2 4 -23 -2 -43 -11
-38 -6 4 -10 3 -9 -2 4 -22 -2 -44 -10 -39 -5 4 -8 -2 -7 -11 4 -23 -25 -84
-36 -77 -4 3 -5 -2 -2 -11 6 -14 -9 -53 -47 -127 -5 -10 -9 -25 -9 -33 0 -8
-4 -15 -10 -15 -5 0 -10 -11 -10 -24 0 -14 -4 -28 -10 -31 -5 -3 -10 -15 -10
-26 0 -10 -4 -19 -10 -19 -5 0 -10 -9 -10 -20 0 -11 -4 -28 -9 -38 -37 -69
-43 -97 -39 -166 5 -65 37 -154 61 -164 4 -2 7 -12 7 -22 0 -10 3 -20 8 -22
10 -4 67 -82 65 -88 -2 -6 288 -293 346 -342 17 -16 36 -28 41 -28 6 0 10 -4
10 -10 0 -5 6 -10 13 -10 7 0 19 -9 27 -20 8 -11 20 -20 27 -20 7 0 13 -4 13
-10 0 -5 9 -10 21 -10 11 0 17 -4 14 -10 -3 -5 3 -10 14 -10 12 0 21 -4 21
-10 0 -5 12 -10 26 -10 15 0 23 -4 19 -11 -5 -7 6 -9 30 -7 28 2 40 10 53 33
9 17 19 32 22 35 3 3 16 28 30 55 14 28 28 52 33 53 4 2 7 10 7 18 0 8 3 14 8
14 4 0 18 25 32 55 14 30 29 55 33 55 5 0 6 4 2 9 -3 5 1 15 8 23 7 7 27 43
46 80 19 38 38 65 44 61 6 -4 8 0 4 10 -3 8 1 21 9 28 8 6 12 14 10 17 -3 2 2
11 10 19 8 8 12 19 9 24 -4 5 -2 9 3 9 5 0 17 19 28 41 10 23 24 47 31 54 10
11 67 111 97 172 6 13 14 23 19 23 4 0 7 9 7 20 0 11 5 20 10 20 6 0 10 9 10
20 0 11 5 20 10 20 6 0 10 7 10 15 0 8 5 15 10 15 6 0 10 7 10 15 0 8 5 15 10
15 6 0 10 9 10 20 0 11 5 20 10 20 6 0 10 8 10 18 0 9 9 28 20 42 11 14 20 30
20 37 0 6 3 13 8 15 4 2 22 33 41 71 19 37 38 67 42 67 5 0 8 3 8 8 -3 20 2
32 12 26 7 -4 10 -1 7 7 -4 12 23 62 52 96 6 7 10 15 10 18 -1 22 1 25 11 20
6 -4 9 -1 7 7 -4 16 33 98 45 98 4 0 7 9 7 20 0 11 4 20 9 20 5 0 14 14 21 30
7 17 16 30 21 30 5 0 9 7 9 16 0 8 7 22 15 31 8 8 13 19 10 24 -4 5 -2 9 4 9
6 0 18 17 27 38 10 20 26 49 36 64 17 24 36 59 99 178 13 25 27 47 32 48 4 2
7 13 7 23 0 11 5 17 10 14 6 -3 10 3 10 14 0 12 5 21 11 21 5 0 8 4 4 9 -3 5
2 17 11 25 8 9 12 16 8 16 -4 0 -1 8 8 18 8 9 25 38 38 64 13 26 28 44 33 41
4 -3 7 1 6 8 -3 17 33 99 43 99 5 0 8 7 8 15 0 9 7 18 15 21 8 4 12 10 9 15
-3 5 4 22 15 38 12 16 21 34 21 39 0 6 3 12 8 14 4 2 22 33 41 71 19 37 38 67
42 67 5 0 9 9 9 19 0 11 4 21 9 23 5 2 11 10 13 18 2 8 6 17 9 20 9 8 92 150
118 203 13 26 27 47 30 47 3 0 17 25 31 55 14 30 29 55 33 55 5 0 5 5 2 10 -3
6 1 13 10 16 9 4 14 12 11 20 -3 7 2 18 9 24 8 7 13 16 10 20 -3 5 0 12 6 16
6 3 17 22 25 41 9 20 19 31 26 27 7 -4 8 -3 4 4 -7 12 31 94 47 100 4 2 7 12
7 23 0 10 4 19 8 19 5 0 14 16 22 35 8 19 17 35 22 35 4 0 8 7 8 15 0 8 5 15
10 15 6 0 10 9 10 20 0 11 4 20 8 20 5 0 14 16 22 35 8 19 17 35 22 35 4 0 8
6 8 14 0 8 3 16 8 18 11 5 63 108 55 108 -5 0 0 5 10 11 9 5 17 17 17 24 0 8
3 15 8 15 4 0 12 10 18 23 43 85 79 147 86 147 4 0 8 9 8 19 0 11 3 21 8 23 4
2 21 30 38 63 98 190 117 224 127 218 5 -3 7 -1 3 5 -7 12 13 62 26 62 4 0 8
9 8 20 0 11 5 20 10 20 6 0 10 9 10 20 0 11 4 20 8 20 5 0 14 16 22 35 8 19
17 35 22 35 4 0 8 7 8 15 0 8 5 15 10 15 6 0 10 9 10 20 0 11 4 20 8 20 5 0
14 16 22 35 8 19 17 35 22 35 4 0 8 7 8 15 0 8 5 15 10 15 6 0 10 7 10 15 0 8
5 15 10 15 6 0 10 7 10 15 0 17 17 50 40 76 8 10 37 61 64 113 27 53 54 96 59
96 6 0 7 3 4 7 -4 3 0 15 10 25 9 10 12 18 8 18 -4 0 -1 8 8 18 8 9 16 19 16
22 0 9 14 45 20 50 3 3 17 25 30 50 35 66 44 72 37 23 -3 -24 -9 -62 -12 -85
-3 -24 -9 -52 -14 -63 -8 -19 -15 -54 -26 -142 -4 -24 -10 -43 -15 -43 -5 0
-9 -20 -9 -45 0 -25 -4 -45 -10 -45 -5 0 -10 -18 -10 -40 0 -22 -4 -40 -10
-40 -5 0 -10 -18 -10 -40 0 -22 -4 -40 -10 -40 -5 0 -10 -18 -10 -40 0 -22 -4
-40 -10 -40 -5 0 -10 -16 -10 -35 0 -19 -4 -35 -10 -35 -5 0 -10 -16 -10 -35
0 -19 -4 -35 -10 -35 -5 0 -10 -18 -10 -40 0 -22 -4 -40 -10 -40 -5 0 -10 -16
-10 -36 0 -21 -4 -33 -10 -29 -6 4 -10 -10 -10 -34 0 -23 -4 -41 -10 -41 -5 0
-10 -16 -10 -35 0 -19 -4 -35 -10 -35 -5 0 -10 -15 -10 -34 0 -19 -4 -36 -8
-38 -9 -3 -56 -157 -98 -318 -25 -93 -36 -135 -54 -195 -5 -16 -12 -41 -15
-55 -4 -14 -10 -34 -15 -45 -4 -11 -13 -40 -20 -65 -7 -25 -16 -56 -20 -70 -4
-14 -13 -45 -20 -70 -6 -25 -16 -53 -21 -62 -5 -10 -9 -29 -9 -43 0 -14 -4
-25 -10 -25 -5 0 -10 -13 -10 -29 0 -17 -5 -33 -10 -36 -6 -3 -10 -19 -10 -35
0 -16 -5 -32 -10 -35 -5 -3 -10 -17 -10 -31 0 -13 -4 -24 -10 -24 -5 0 -10
-17 -10 -37 0 -28 -3 -34 -10 -23 -7 11 -10 4 -10 -27 0 -23 -4 -45 -10 -48
-5 -3 -10 -17 -10 -30 0 -13 -4 -27 -10 -30 -5 -3 -10 -19 -10 -36 0 -16 -4
-29 -10 -29 -5 0 -10 -16 -10 -36 0 -21 -4 -33 -10 -29 -6 4 -10 -8 -10 -29 0
-20 -4 -36 -10 -36 -5 0 -10 -16 -10 -35 0 -19 -4 -35 -10 -35 -5 0 -10 -13
-10 -30 0 -16 -4 -30 -10 -30 -5 0 -10 -13 -10 -30 0 -16 -4 -30 -10 -30 -5 0
-10 -13 -10 -30 0 -16 -4 -30 -10 -30 -5 0 -10 -16 -10 -35 0 -19 -4 -35 -10
-35 -5 0 -10 -13 -10 -30 0 -16 -4 -30 -10 -30 -5 0 -10 -13 -10 -28 0 -15 -4
-32 -9 -37 -8 -9 -24 -61 -62 -200 -6 -22 -15 -49 -19 -60 -17 -47 -30 -93
-30 -108 0 -10 -4 -25 -9 -35 -5 -9 -15 -37 -21 -62 -24 -85 -33 -115 -41
-138 -5 -13 -9 -34 -9 -47 0 -13 -5 -27 -10 -30 -5 -3 -10 -19 -10 -35 0 -16
-4 -32 -10 -35 -5 -3 -10 -19 -10 -35 0 -16 -4 -32 -10 -35 -5 -3 -10 -21 -10
-39 0 -17 -5 -37 -11 -43 -15 -15 -15 -141 0 -156 6 -6 11 -19 11 -29 0 -10 5
-28 12 -41 24 -47 28 -57 28 -72 0 -8 5 -15 10 -15 6 0 10 -9 10 -20 0 -11 5
-20 10 -20 6 0 10 -6 10 -14 0 -15 49 -112 78 -154 10 -15 26 -43 35 -62 14
-32 26 -49 67 -97 6 -7 8 -13 4 -13 -3 0 8 -13 26 -30 18 -16 29 -30 25 -30
-3 0 8 -12 27 -27 18 -15 45 -40 60 -56 15 -15 31 -28 35 -28 4 -1 6 -6 5 -13
-2 -6 -1 -8 3 -4 4 4 53 -17 109 -46 55 -28 121 -58 146 -65 25 -7 55 -17 68
-22 54 -21 63 -15 147 96 21 28 42 52 47 53 4 2 6 8 3 12 -3 5 5 16 17 24 12
9 19 16 14 16 -5 0 1 9 13 19 12 11 21 22 19 24 -2 3 7 17 19 31 13 14 20 26
18 26 -3 0 6 12 20 27 14 15 25 31 25 34 0 3 8 15 18 27 45 54 52 63 52 70 0
4 9 14 20 22 11 8 20 20 20 27 0 7 5 13 10 13 6 0 10 7 10 15 0 8 3 15 8 15 4
0 23 24 42 54 19 30 38 52 42 50 4 -3 8 1 8 9 0 7 9 23 20 35 11 12 20 26 20
32 0 6 5 8 10 5 6 -3 10 1 10 10 0 10 5 13 12 9 6 -4 8 -3 5 3 -4 6 5 25 21
42 46 52 53 61 47 61 -3 0 6 11 20 25 14 14 25 30 25 34 0 5 13 24 30 42 16
19 30 37 30 41 0 4 6 13 13 20 7 7 24 29 37 48 13 19 27 37 30 40 4 3 22 28
40 55 19 28 37 51 42 53 4 2 8 9 8 16 0 6 9 18 20 26 11 8 20 20 20 28 0 7 5
10 12 6 6 -4 8 -3 4 4 -3 6 1 17 9 25 8 9 15 21 15 27 0 6 5 8 10 5 6 -3 10 1
10 10 0 10 5 13 12 9 6 -4 8 -3 5 3 -4 6 7 26 23 44 16 19 30 37 30 40 0 4 16
24 35 45 19 22 35 43 35 47 0 4 13 22 30 40 16 18 30 36 30 40 0 4 12 20 26
35 14 15 42 52 62 82 20 30 44 62 54 71 10 9 18 21 18 27 0 5 14 24 30 42 17
18 30 35 30 39 0 3 11 20 25 36 13 17 54 71 91 120 37 50 71 91 75 93 5 2 9 9
9 15 0 7 14 26 30 44 17 18 30 37 30 42 0 6 9 16 20 23 11 7 20 17 20 23 0 6
15 28 34 50 19 22 33 41 31 43 -2 2 6 15 18 28 35 37 48 54 42 54 -3 0 6 11
20 25 14 14 25 30 25 35 0 5 11 20 25 34 14 14 25 30 25 36 0 5 5 10 10 10 6
0 10 6 10 13 0 7 9 19 20 27 11 8 20 20 20 27 0 7 5 13 10 13 6 0 10 6 10 13
0 7 9 19 20 27 11 8 20 20 20 27 0 7 5 13 10 13 6 0 10 6 10 13 0 7 9 19 20
27 11 8 20 20 20 26 0 7 4 14 8 16 5 2 23 26 42 53 18 28 36 52 39 55 4 3 17
22 31 42 14 21 29 38 33 38 5 0 5 5 2 10 -3 6 -3 10 2 10 4 0 19 17 33 38 13
20 35 47 47 59 13 12 23 27 23 33 0 5 4 10 9 10 5 0 12 8 15 18 4 9 19 31 34
49 50 58 62 73 62 81 0 4 14 21 30 39 17 18 30 36 30 40 0 5 9 15 20 23 11 8
20 19 20 25 0 5 14 26 30 45 16 19 30 39 30 43 0 4 13 22 30 40 16 18 30 38
30 45 0 6 3 12 8 12 4 0 18 18 31 40 14 21 29 36 34 33 6 -3 7 -1 4 4 -4 6 5
23 18 37 14 15 25 30 25 34 0 4 14 21 30 39 17 18 30 36 30 42 0 5 6 14 13 18
8 4 24 24 38 43 13 19 26 37 29 40 19 19 79 99 90 120 7 14 20 32 29 40 9 8
22 26 29 41 7 14 26 39 43 57 16 17 29 35 29 39 0 4 14 22 30 40 17 18 30 36
30 40 0 4 14 22 30 40 17 18 30 36 30 40 0 4 14 23 31 41 16 17 27 32 23 32
-3 0 8 17 25 38 40 47 40 47 81 107 18 28 40 54 47 58 7 4 13 12 13 18 0 5 14
23 30 41 17 17 30 35 30 39 0 8 17 32 45 63 6 6 22 27 35 46 13 19 27 37 30
40 3 3 16 21 30 40 13 19 28 40 32 45 5 6 20 26 34 45 15 19 24 28 20 20 -3
-8 -9 -23 -12 -32 -4 -10 -10 -18 -15 -18 -5 0 -9 -9 -9 -20 0 -11 -4 -20 -10
-20 -5 0 -10 -9 -10 -20 0 -11 -4 -20 -10 -20 -5 0 -10 -9 -10 -20 0 -11 -4
-20 -10 -20 -5 0 -10 -9 -10 -20 0 -11 -4 -20 -10 -20 -5 0 -10 -11 -10 -25 0
-14 -4 -25 -10 -25 -5 0 -10 -9 -10 -20 0 -11 -4 -20 -10 -20 -5 0 -10 -9 -10
-20 0 -11 -4 -20 -10 -20 -5 0 -10 -9 -10 -19 0 -11 -4 -23 -10 -26 -5 -3 -10
-15 -10 -26 0 -10 -4 -19 -10 -19 -5 0 -10 -9 -10 -21 0 -13 -4 -18 -12 -13
-8 5 -9 0 -5 -15 3 -14 0 -24 -9 -28 -8 -3 -14 -10 -13 -17 3 -25 -2 -37 -13
-30 -7 4 -8 3 -4 -4 4 -6 -28 -80 -70 -164 -109 -218 -114 -228 -114 -244 0
-8 -4 -14 -10 -14 -5 0 -10 -6 -10 -13 0 -18 -24 -67 -32 -67 -5 0 -8 -9 -8
-20 0 -11 -4 -20 -10 -20 -5 0 -10 -12 -10 -26 0 -14 -4 -23 -10 -19 -6 4 -10
-5 -10 -20 0 -15 -4 -24 -10 -20 -6 4 -10 -5 -10 -19 0 -14 -4 -26 -10 -26 -5
0 -10 -11 -10 -25 0 -14 -4 -25 -10 -25 -5 0 -10 -9 -10 -20 0 -11 -4 -20 -10
-20 -5 0 -10 -6 -10 -14 0 -7 -18 -48 -40 -91 -22 -43 -40 -84 -40 -91 0 -8
-5 -14 -10 -14 -6 0 -10 -8 -8 -17 2 -11 -2 -17 -10 -15 -8 1 -13 -5 -12 -15
4 -33 0 -44 -12 -37 -6 4 -8 3 -5 -4 10 -15 -3 -43 -16 -35 -5 3 -7 1 -4 -5 9
-14 -3 -43 -14 -36 -5 3 -6 -1 -3 -9 3 -8 -4 -31 -15 -51 -12 -20 -21 -43 -21
-51 0 -8 -4 -15 -10 -15 -5 0 -10 -9 -10 -20 0 -11 -4 -20 -10 -20 -5 0 -10
-7 -10 -15 0 -9 -10 -32 -23 -53 -28 -45 -87 -169 -87 -182 0 -6 -4 -10 -10
-10 -5 0 -10 -9 -10 -20 0 -11 -4 -20 -10 -20 -5 0 -10 -9 -10 -19 0 -11 -4
-23 -10 -26 -5 -3 -10 -15 -10 -26 0 -10 -4 -19 -10 -19 -5 0 -10 -9 -10 -20
0 -11 -4 -20 -10 -20 -5 0 -10 -11 -10 -25 0 -14 -4 -25 -10 -25 -5 0 -10 -9
-10 -20 0 -11 -4 -20 -10 -20 -5 0 -10 -6 -10 -14 0 -7 -18 -48 -40 -91 -22
-43 -40 -84 -40 -91 0 -8 -4 -14 -10 -14 -5 0 -9 -3 -9 -7 3 -20 -2 -34 -11
-28 -6 4 -10 -5 -10 -19 0 -14 -5 -26 -11 -26 -5 0 -8 -4 -5 -9 9 -14 -5 -42
-17 -34 -6 3 -7 1 -3 -5 4 -7 -7 -40 -24 -74 -16 -35 -30 -68 -30 -75 0 -7 -4
-13 -10 -13 -5 0 -10 -7 -10 -15 0 -8 -9 -30 -20 -50 -11 -20 -20 -42 -20 -50
0 -8 -4 -15 -10 -15 -5 0 -10 -6 -10 -13 0 -18 -24 -67 -32 -67 -5 0 -8 -9 -8
-20 0 -11 -4 -20 -10 -20 -5 0 -10 -9 -10 -19 0 -11 -4 -21 -9 -23 -4 -2 -25
-39 -45 -83 -20 -44 -41 -88 -46 -97 -6 -10 -10 -25 -10 -33 0 -8 -4 -15 -10
-15 -5 0 -10 -9 -10 -20 0 -11 -4 -20 -10 -20 -5 0 -10 -6 -10 -14 0 -8 -13
-40 -30 -71 -16 -31 -30 -63 -30 -71 0 -8 -4 -14 -10 -14 -5 0 -10 -9 -10 -20
0 -11 -4 -20 -10 -20 -5 0 -10 -6 -10 -13 0 -18 -24 -67 -32 -67 -5 0 -8 -9
-8 -20 0 -11 -16 -55 -36 -98 -20 -42 -48 -104 -64 -137 -60 -130 -95 -200
-102 -203 -5 -2 -8 -15 -8 -28 0 -14 -4 -22 -10 -19 -6 4 -10 -5 -10 -19 0
-14 -4 -26 -10 -26 -5 0 -10 -9 -10 -20 0 -11 -4 -20 -10 -20 -5 0 -10 -7 -10
-15 0 -14 -45 -101 -61 -119 -5 -6 -9 -18 -9 -28 0 -10 -4 -18 -10 -18 -5 0
-10 -9 -10 -20 0 -11 -4 -20 -10 -20 -5 0 -10 -9 -10 -20 0 -11 -4 -20 -10
-20 -5 0 -10 -9 -10 -20 0 -11 -5 -20 -11 -20 -23 0 -3 -52 26 -68 17 -9 32
-20 33 -24 2 -5 10 -8 18 -8 8 0 14 -4 14 -10 0 -5 7 -10 15 -10 8 0 15 -4 15
-10 0 -5 9 -10 20 -10 11 0 20 -4 20 -10 0 -5 9 -10 20 -10 11 0 20 -4 20 -10
0 -5 9 -10 20 -10 11 0 20 -4 20 -10 0 -5 12 -10 26 -10 14 0 23 -4 19 -10 -4
-6 5 -10 19 -10 14 0 26 -4 26 -10 0 -5 14 -10 31 -10 17 0 28 -4 24 -10 -4
-6 7 -10 24 -10 17 0 31 -4 31 -10 0 -5 14 -10 31 -10 17 0 28 -4 24 -10 -4
-6 8 -10 30 -10 22 0 34 -4 30 -10 -4 -6 8 -10 30 -10 22 0 34 -4 30 -10 -4
-6 10 -10 35 -10 28 0 39 -4 34 -11 -5 -8 0 -10 17 -6 31 8 71 -2 62 -16 -4
-6 3 -8 21 -3 29 7 78 -2 71 -14 -2 -4 7 -5 20 -2 31 5 117 -7 111 -16 -5 -8
197 -7 219 2 8 3 15 13 15 21 0 9 5 13 10 10 6 -4 10 5 10 19 0 14 5 26 10 26
6 0 10 6 9 13 -3 27 1 48 10 43 7 -5 16 20 25 65 1 3 12 30 25 60 53 120 61
139 61 149 0 6 4 18 9 28 5 9 14 31 21 47 7 17 16 38 21 47 5 10 9 25 9 33 0
8 5 15 10 15 6 0 10 9 10 20 0 11 4 28 9 38 5 9 14 31 21 47 7 17 16 38 21 47
5 10 9 25 9 33 0 8 5 15 10 15 6 0 10 11 10 25 0 14 5 25 10 25 6 0 10 11 10
25 0 14 5 25 10 25 6 0 10 11 10 24 0 14 5 28 10 31 6 3 10 15 10 26 0 10 5
19 10 19 6 0 10 11 10 25 0 14 5 25 10 25 6 0 10 11 10 25 0 14 5 25 10 25 6
0 10 11 10 25 0 14 5 25 10 25 6 0 10 11 10 25 0 14 5 25 10 25 6 0 10 12 10
26 0 14 4 23 10 19 6 -4 10 7 10 24 0 17 5 31 10 31 6 0 10 6 9 13 -3 24 1 38
10 33 5 -3 9 6 9 20 0 15 5 30 11 34 7 4 11 11 10 16 -4 22 2 35 13 28 8 -5 9
-2 5 11 -4 9 -3 23 3 30 6 7 13 24 15 36 3 13 9 25 15 27 6 2 8 8 5 12 -3 5
-1 17 4 27 25 47 61 135 61 148 0 8 5 15 10 15 6 0 10 9 10 19 0 11 5 23 10
26 6 3 10 14 10 24 0 21 22 71 33 71 4 0 7 9 7 20 0 11 4 28 9 38 5 9 13 28
18 42 6 14 15 37 22 53 6 15 16 38 21 52 6 14 15 36 20 50 24 61 33 81 41 97
5 10 9 27 9 38 0 11 5 20 10 20 6 0 10 12 10 26 0 14 4 23 10 19 6 -4 10 7 10
25 0 18 4 29 10 25 6 -4 10 7 10 25 0 18 4 29 10 25 6 -4 10 7 10 25 0 18 4
29 10 25 6 -4 10 5 10 19 0 14 5 26 10 26 6 0 10 12 10 26 0 16 4 23 12 18 8
-5 9 0 5 15 -3 12 0 27 7 34 7 7 11 17 9 23 -2 7 3 18 11 27 8 8 13 17 10 20
-5 4 2 25 37 104 11 24 19 47 19 53 0 6 4 18 9 28 5 9 14 31 21 47 7 17 16 38
21 47 5 10 9 25 9 33 0 8 5 15 10 15 6 0 10 11 10 24 0 14 5 28 10 31 6 3 10
15 10 26 0 10 4 19 9 19 5 0 13 10 16 23 4 12 15 41 26 64 10 24 19 49 19 56
0 7 4 17 8 22 5 6 19 37 32 70 13 33 27 64 32 70 4 5 8 19 8 32 0 13 5 23 10
23 6 0 10 11 10 25 0 14 5 25 10 25 6 0 10 11 10 25 0 14 5 25 10 25 6 0 10
11 10 25 0 14 5 25 10 25 6 0 10 11 10 24 0 14 5 28 10 31 6 3 10 15 10 26 0
10 5 19 10 19 6 0 10 11 10 25 0 14 5 25 10 25 6 0 10 11 10 25 0 14 5 25 10
25 6 0 10 12 10 26 0 16 4 23 11 18 7 -4 10 -1 7 7 -3 8 0 23 5 34 11 19 12
24 15 53 1 7 7 10 14 6 7 -5 9 -2 5 9 -7 18 22 99 33 92 4 -2 5 7 2 20 -2 14
0 25 6 25 6 0 12 12 14 28 2 15 8 26 14 25 7 -1 9 8 6 22 -2 15 0 25 7 25 6 0
11 9 11 20 0 11 9 35 20 55 11 20 20 44 20 55 0 11 5 20 10 20 6 0 10 7 10 15
0 8 4 23 9 33 10 19 30 67 41 97 9 23 58 132 71 157 5 10 9 25 9 33 0 8 5 15
10 15 6 0 10 11 10 24 0 14 5 28 10 31 6 3 10 15 10 26 0 10 5 19 10 19 6 0
10 9 10 20 0 11 4 28 9 38 5 9 14 29 20 45 6 15 16 39 22 55 6 15 15 35 20 44
5 10 9 25 9 33 0 8 5 15 10 15 6 0 10 11 10 24 0 14 5 28 10 31 6 3 10 15 10
26 0 10 5 19 11 19 5 0 8 4 5 8 -3 5 1 19 8 33 7 13 11 30 8 37 -2 6 3 15 12
18 9 3 14 10 11 14 -8 12 6 41 16 34 5 -3 6 2 3 11 -4 9 -2 26 3 38 15 32 35
79 43 102 4 11 12 31 17 45 6 14 15 36 20 50 6 14 15 36 20 50 20 49 35 85 44
102 5 10 9 25 9 33 0 8 5 15 10 15 6 0 10 11 10 24 0 14 5 28 10 31 6 3 10 15
10 26 0 10 5 19 10 19 6 0 10 11 10 24 0 14 5 28 10 31 6 3 10 15 10 26 0 11
5 17 10 14 6 -4 10 7 10 24 0 17 5 31 10 31 6 0 10 7 10 16 0 8 7 23 16 31 8
9 13 24 11 34 -3 11 -1 19 3 19 5 0 12 10 16 23 3 12 15 42 26 67 22 50 36 82
51 120 5 14 13 33 18 42 5 10 9 25 9 33 0 8 5 15 10 15 6 0 10 10 10 23 0 13
3 27 8 31 7 8 8 13 11 42 0 9 6 12 13 8 8 -5 9 0 5 15 -3 13 0 24 6 27 7 2 13
15 13 28 1 13 8 38 17 57 8 19 18 42 21 52 3 10 11 15 16 12 7 -4 9 2 5 18 -4
14 -2 28 4 31 6 4 11 16 11 27 0 11 7 22 15 25 8 4 12 11 9 16 -4 5 -2 20 3
31 6 12 16 36 23 52 7 17 16 38 21 47 5 10 9 27 9 37 0 11 5 23 10 26 6 3 10
15 10 26 0 10 5 19 10 19 6 0 10 11 10 25 0 14 5 25 10 25 6 0 10 9 10 20 0
11 5 20 10 20 6 0 10 16 10 35 0 28 -4 35 -20 35 -11 0 -20 5 -20 10 0 6 -74
10 -201 10 -131 0 -198 -3 -194 -10z"/>
<path d="M30800 17790 c-369 -47 -1291 -148 -2050 -225 -807 -82 -1435 -190
-1848 -317 l-63 -19 6 -47 c34 -261 64 -372 126 -463 73 -108 138 -144 314
-174 55 -9 101 -18 103 -20 2 -1 -51 -108 -116 -236 -66 -129 -224 -441 -352
-694 -128 -253 -250 -493 -272 -533 -74 -136 -139 -247 -156 -263 -9 -8 -46
-21 -82 -28 -160 -29 -532 -120 -547 -133 -8 -7 -10 -15 -4 -22 21 -27 211
-577 211 -613 0 -28 -41 -100 -280 -488 -251 -408 -338 -561 -491 -860 -165
-324 -257 -554 -355 -895 -80 -277 -139 -627 -163 -955 l-9 -120 31 -25 c137
-112 186 -187 213 -325 9 -44 19 -83 23 -87 5 -5 128 12 576 82 117 18 2400
368 3502 536 244 37 447 71 453 74 7 4 7 23 0 59 -5 28 -14 136 -20 239 -11
212 -22 287 -53 381 l-22 66 -70 23 c-94 32 -314 77 -455 93 -147 17 -588 17
-780 1 -322 -29 -564 -64 -1015 -151 -366 -70 -786 -149 -893 -169 -91 -17
-104 -17 -109 -4 -7 16 25 151 62 266 85 263 248 614 424 916 151 258 397 652
616 988 l70 107 70 2 c217 7 595 51 878 103 31 5 81 14 110 19 77 14 305 60
357 72 43 10 91 21 175 39 333 73 693 159 975 233 284 75 335 89 346 98 25 21
-18 144 -98 280 -95 161 -100 176 -109 278 -10 111 -29 176 -67 219 l-27 31
-105 -9 c-58 -5 -161 -13 -230 -19 -69 -6 -180 -15 -247 -21 -68 -5 -178 -15
-245 -20 -68 -6 -177 -15 -243 -20 -66 -6 -176 -15 -245 -21 -69 -5 -174 -14
-235 -19 -60 -5 -168 -14 -240 -20 -71 -6 -170 -15 -220 -19 -49 -4 -94 -5
-98 -1 -7 6 28 83 253 545 51 105 121 250 157 324 191 396 272 559 280 564 5
4 93 20 194 37 501 84 1004 182 1384 270 407 94 1424 345 1432 354 4 3 -1 14
-10 24 -9 10 -28 44 -43 77 -92 209 -112 236 -217 295 l-52 29 -38 116 c-44
133 -69 168 -129 183 -63 16 -164 21 -238 12z"/>
<path d="M22814 17735 c-111 -118 -386 -528 -534 -795 -29 -52 -66 -120 -83
-150 -92 -165 -315 -627 -437 -905 -29 -66 -63 -144 -76 -173 -13 -29 -24 -55
-24 -57 0 -2 -11 -28 -24 -57 -14 -30 -34 -78 -46 -107 -11 -30 -29 -73 -40
-95 -18 -42 -416 -1037 -595 -1491 -85 -216 -120 -301 -213 -520 -43 -101
-178 -359 -187 -357 -5 1 -13 46 -16 99 -4 54 -12 161 -18 238 -13 155 -42
520 -81 1015 -5 69 -14 184 -20 255 -6 72 -15 187 -20 258 -6 70 -15 187 -20
260 -6 72 -15 186 -20 252 -5 66 -14 179 -20 250 -13 164 -28 354 -40 515 -6
69 -14 181 -20 250 -10 120 -18 227 -40 520 -6 74 -15 189 -20 255 -6 66 -13
157 -17 203 -5 66 -9 82 -22 83 -85 2 -292 -4 -400 -12 -379 -29 -574 -97
-739 -256 -70 -67 -72 -72 -308 -528 -131 -253 -369 -721 -529 -1040 -255
-507 -348 -699 -510 -1050 -83 -179 -153 -333 -175 -380 -12 -27 -34 -75 -47
-105 -14 -30 -41 -91 -60 -135 -20 -44 -43 -98 -53 -120 -53 -120 -205 -476
-240 -566 -23 -57 -51 -124 -62 -149 -26 -57 -225 -569 -248 -640 -5 -14 -27
-77 -50 -140 -205 -574 -351 -1123 -392 -1481 -20 -181 1 -210 221 -298 65
-26 154 -70 197 -98 169 -108 413 -209 440 -181 7 7 156 373 333 813 176 440
378 944 449 1120 71 176 244 606 385 955 140 349 391 973 557 1385 166 413
307 765 314 784 26 79 32 43 44 -251 7 -161 17 -385 22 -498 5 -113 14 -311
20 -440 62 -1378 146 -2316 251 -2825 37 -176 89 -368 115 -423 81 -166 451
-319 854 -353 71 -6 137 -9 145 -6 16 7 34 44 105 222 29 72 60 148 70 170 10
22 41 99 70 170 28 72 58 144 66 160 18 41 95 224 155 375 49 121 59 144 92
220 8 19 34 82 57 140 23 58 50 123 60 145 10 22 43 101 73 175 30 74 82 201
116 283 34 81 88 213 122 295 34 81 81 197 106 257 44 109 56 136 86 205 8 19
39 94 67 165 29 72 60 148 70 170 17 39 50 118 167 405 30 74 63 153 73 175
10 22 38 90 63 150 71 173 286 695 385 935 33 80 87 210 120 290 33 80 87 210
120 290 33 80 77 186 97 235 33 80 78 189 305 740 32 77 84 201 115 275 135
325 148 362 135 370 -17 10 -64 18 -255 40 -159 18 -161 18 -275 74 -72 34
-137 59 -175 64 -60 10 -60 10 -91 -23z"/>
<path d="M25850 17629 c-140 -19 -282 -20 -391 -3 -34 6 -40 2 -94 -53 -284
-288 -1130 -1675 -1659 -2718 -182 -359 -253 -511 -466 -1000 -29 -66 -60
-138 -70 -160 -10 -22 -32 -74 -50 -115 -31 -72 -45 -104 -90 -205 -19 -43
-48 -107 -75 -170 -8 -16 -32 -70 -54 -118 -23 -49 -41 -91 -41 -93 0 -2 -11
-27 -24 -56 -77 -168 -287 -695 -476 -1193 -21 -55 -50 -131 -65 -170 -15 -38
-45 -116 -66 -172 -22 -57 -57 -151 -80 -210 -74 -194 -89 -238 -89 -253 0
-24 180 -244 287 -353 75 -75 114 -106 168 -133 82 -40 238 -81 345 -90 l75
-6 24 53 c14 30 41 90 62 134 32 71 61 132 164 360 15 33 107 233 205 445 98
212 189 410 202 440 83 182 317 690 441 960 80 173 182 396 227 495 45 99 196
428 335 730 267 580 395 861 440 960 15 33 50 107 77 165 28 58 53 114 58 125
4 11 75 166 158 345 82 179 162 352 177 385 92 203 153 335 215 470 17 36 44
94 60 130 17 36 44 95 61 133 17 37 66 144 109 237 134 292 142 309 166 363
40 87 70 153 113 246 29 62 38 93 31 100 -19 19 -255 16 -410 -5z"/>
<path d="M35285 17239 c-550 -64 -1182 -201 -1672 -360 -688 -224 -1317 -564
-1673 -905 -225 -215 -388 -450 -458 -659 -43 -128 -47 -158 -47 -315 1 -156
12 -230 51 -348 137 -403 603 -729 1374 -962 58 -17 116 -35 130 -40 40 -14
477 -143 710 -210 326 -93 428 -133 506 -202 53 -47 64 -79 53 -158 -36 -255
-141 -474 -333 -692 -152 -173 -333 -304 -590 -429 -205 -98 -317 -142 -706
-272 -603 -202 -933 -281 -1293 -309 -231 -18 -383 10 -452 82 -24 25 -27 34
-21 70 15 97 89 271 156 371 127 185 343 373 554 480 26 13 50 29 53 36 7 19
-26 122 -60 186 -28 54 -74 100 -154 155 l-32 23 -93 -27 c-595 -170 -1142
-622 -1365 -1128 -72 -161 -94 -258 -100 -428 -4 -116 -2 -162 12 -223 56
-255 225 -462 502 -619 162 -91 300 -138 508 -173 128 -22 586 -25 745 -5 634
81 1330 302 1991 632 538 269 944 544 1239 840 156 156 222 242 370 483 171
278 303 568 357 784 24 95 27 127 27 263 0 126 -4 169 -22 232 -57 208 -148
355 -331 539 -329 328 -560 430 -1381 609 -19 4 -159 36 -310 70 -151 34 -291
66 -310 70 -282 61 -436 118 -516 192 -50 46 -55 76 -29 161 60 198 251 388
555 550 132 71 322 144 615 236 212 67 959 250 971 238 3 -3 -29 -39 -70 -80
-154 -151 -155 -233 -8 -397 37 -41 79 -91 94 -109 l26 -34 119 12 c153 17
340 54 479 97 423 128 820 415 1015 734 22 36 45 73 52 82 8 13 8 22 -1 40 -6
13 -28 68 -48 123 -122 336 -297 546 -532 641 -184 74 -358 88 -657 53z"/>
<path d="M16555 15454 c-31 -40 -114 -124 -124 -124 -3 0 -22 -23 -41 -50 -25
-35 -42 -50 -58 -50 -13 0 -20 4 -17 10 4 6 -29 10 -92 11 -64 0 -91 3 -78 9
12 5 -41 9 -140 9 -107 1 -155 -3 -145 -9 10 -7 -20 -10 -93 -10 -70 0 -106
-4 -102 -10 4 -6 -17 -10 -55 -10 -38 0 -59 -4 -55 -10 4 -6 -13 -10 -44 -10
-28 0 -51 -4 -51 -10 0 -5 -18 -10 -40 -10 -22 0 -40 -4 -40 -10 0 -5 -16 -10
-35 -10 -19 0 -35 -4 -35 -10 0 -5 -16 -10 -35 -10 -19 0 -35 -4 -35 -10 0 -5
-13 -10 -30 -10 -16 0 -30 -4 -30 -10 0 -5 -11 -10 -25 -10 -14 0 -25 -4 -25
-10 0 -5 -11 -10 -24 -10 -14 0 -28 -4 -31 -10 -3 -5 -15 -10 -26 -10 -10 0
-19 -4 -19 -10 0 -5 -11 -10 -25 -10 -14 0 -25 -4 -25 -10 0 -5 -9 -10 -19
-10 -11 0 -23 -4 -26 -10 -3 -5 -15 -10 -26 -10 -10 0 -19 -4 -19 -10 0 -5 -9
-10 -20 -10 -11 0 -20 -4 -20 -10 0 -5 -9 -10 -20 -10 -11 0 -20 -4 -20 -10 0
-5 -9 -10 -19 -10 -11 0 -21 -4 -23 -8 -1 -4 -28 -20 -58 -35 -54 -27 -66 -34
-165 -92 -75 -44 -200 -127 -203 -137 -2 -4 -10 -8 -18 -8 -9 0 -12 -4 -9 -10
3 -5 -1 -10 -9 -10 -9 0 -16 -4 -16 -10 0 -5 -6 -10 -13 -10 -7 0 -19 -9 -27
-20 -8 -11 -20 -20 -27 -20 -7 0 -13 -4 -13 -10 0 -5 -6 -10 -13 -10 -7 0 -19
-9 -27 -20 -8 -11 -19 -20 -25 -20 -6 0 -17 -9 -25 -20 -8 -11 -18 -20 -22
-20 -8 0 -36 -21 -72 -55 -12 -11 -38 -32 -58 -47 -20 -15 -42 -33 -50 -40 -7
-7 -51 -45 -98 -84 -118 -100 -439 -423 -592 -598 -71 -80 -73 -84 -94 -111
-10 -15 -26 -35 -34 -45 -8 -10 -22 -28 -30 -40 -8 -12 -27 -36 -42 -54 -15
-17 -28 -35 -28 -39 0 -5 -5 -5 -12 -1 -6 4 -8 3 -5 -3 4 -5 -1 -19 -11 -29
-9 -10 -28 -36 -42 -56 -14 -21 -28 -38 -32 -38 -5 0 -8 -7 -8 -15 0 -8 -3
-15 -7 -15 -5 0 -19 -17 -33 -38 -14 -20 -31 -43 -38 -51 -7 -7 -31 -41 -54
-75 -23 -33 -45 -62 -50 -64 -4 -2 -8 -8 -8 -13 0 -6 -18 -37 -40 -69 -22 -32
-40 -64 -40 -69 0 -6 -4 -11 -8 -11 -5 0 -19 -20 -32 -45 -13 -25 -27 -45 -32
-45 -4 0 -8 -6 -8 -13 0 -7 -9 -23 -20 -35 -12 -12 -18 -22 -14 -22 4 0 1 -8
-7 -17 -8 -10 -21 -30 -28 -45 -8 -15 -18 -25 -23 -22 -5 3 -8 0 -7 -7 3 -13
-28 -89 -41 -99 -3 -3 -32 -58 -64 -123 -32 -64 -62 -120 -67 -123 -5 -3 -9
-14 -9 -25 0 -10 -4 -19 -10 -19 -5 0 -10 -9 -10 -20 0 -11 -4 -20 -10 -20 -5
0 -10 -9 -10 -20 0 -11 -4 -28 -9 -38 -5 -9 -14 -30 -21 -47 -7 -16 -16 -38
-21 -47 -5 -10 -9 -27 -9 -37 0 -11 -4 -23 -10 -26 -5 -3 -10 -17 -10 -30 0
-13 -4 -27 -10 -30 -5 -3 -10 -19 -10 -35 0 -16 -4 -32 -10 -35 -5 -3 -10 -22
-10 -41 0 -19 -4 -34 -10 -34 -5 0 -10 -20 -10 -45 0 -25 -4 -45 -10 -45 -6 0
-10 -27 -10 -61 0 -37 -4 -58 -10 -54 -7 4 -10 -73 -10 -224 0 -147 4 -231 10
-231 6 0 10 -24 10 -54 0 -30 5 -58 10 -61 6 -3 10 -24 10 -45 0 -21 5 -42 10
-45 6 -3 10 -19 10 -36 0 -16 5 -29 10 -29 6 0 10 -9 10 -20 0 -11 5 -20 10
-20 6 0 10 -5 10 -10 0 -30 168 -210 229 -246 17 -10 31 -22 31 -26 0 -4 7 -8
15 -8 8 0 15 -4 15 -8 0 -5 16 -14 35 -22 19 -8 35 -17 35 -22 0 -4 9 -8 20
-8 11 0 20 -4 20 -10 0 -5 9 -10 19 -10 11 0 23 -4 26 -10 3 -5 17 -10 31 -10
13 0 24 -4 24 -10 0 -5 11 -10 25 -10 14 0 25 -4 25 -10 0 -5 16 -10 35 -10
19 0 35 -4 35 -10 0 -5 18 -10 40 -10 22 0 40 -4 40 -10 0 -6 70 -10 191 -10
124 0 188 3 184 10 -4 6 10 10 34 10 23 0 41 5 41 10 0 6 14 10 30 10 17 0 30
5 30 10 0 6 11 10 25 10 14 0 25 5 25 10 0 6 11 10 25 10 14 0 25 5 25 10 0 6
11 10 25 10 14 0 25 5 25 10 0 6 9 10 20 10 11 0 20 5 20 10 0 6 6 10 14 10
12 0 135 59 146 70 3 3 19 12 35 20 17 8 51 29 76 47 26 18 52 33 58 33 6 0
11 5 11 10 0 6 5 10 11 10 6 0 24 9 40 21 16 11 34 17 39 14 6 -4 9 -1 8 7 -2
7 5 12 14 12 10 -1 15 2 12 7 -3 5 4 9 16 9 12 0 18 5 15 10 -3 6 3 10 15 10
12 0 18 5 15 10 -3 6 3 10 15 10 12 0 18 5 15 10 -3 6 3 10 15 10 12 0 18 5
15 10 -3 6 1 10 9 10 9 0 16 5 16 10 0 6 7 10 16 10 8 0 12 5 9 10 -3 6 1 10
9 10 9 0 16 5 16 10 0 6 5 10 11 10 6 0 28 18 50 41 41 43 53 42 19 -1 -11
-14 -20 -31 -20 -37 0 -7 -4 -13 -10 -13 -5 0 -10 -9 -10 -20 0 -11 -4 -20
-10 -20 -5 0 -10 -7 -10 -15 0 -8 -4 -15 -10 -15 -5 0 -10 -9 -10 -19 0 -11
-4 -23 -10 -26 -5 -3 -10 -15 -10 -26 0 -10 -4 -19 -10 -19 -5 0 -10 -9 -10
-19 0 -11 -4 -23 -10 -26 -5 -3 -10 -17 -10 -31 0 -14 -4 -22 -10 -19 -6 4
-10 -8 -10 -30 0 -22 -4 -34 -10 -30 -6 4 -10 -25 -10 -80 0 -85 10 -115 39
-115 6 0 11 -4 11 -10 0 -6 27 -10 60 -10 33 0 60 4 60 10 0 6 14 10 30 10 17
0 30 5 30 10 0 6 14 10 30 10 17 0 30 5 30 10 0 6 11 10 25 10 14 0 25 5 25
10 0 6 11 10 25 10 14 0 25 5 25 10 0 6 14 10 30 10 17 0 30 5 30 10 0 6 15
10 34 10 19 0 38 -4 41 -10 3 -5 15 -10 26 -10 10 0 19 -4 19 -10 0 -5 9 -10
20 -10 11 0 20 -4 20 -10 0 -5 11 -10 25 -10 14 0 25 -4 25 -10 0 -5 14 -10
30 -10 17 0 30 -4 30 -10 0 -6 39 -10 96 -10 93 0 98 1 120 28 13 15 24 33 24
40 0 6 5 12 10 12 6 0 10 9 10 19 0 11 5 23 10 26 6 3 10 15 10 26 0 10 5 19
10 19 6 0 10 7 10 15 0 8 4 23 9 33 37 74 51 106 51 118 0 8 5 14 10 14 6 0
10 9 10 20 0 11 5 20 10 20 6 0 10 7 10 15 0 8 4 15 10 15 5 0 13 12 16 28 4
15 28 72 54 127 26 55 54 116 63 135 48 111 60 138 72 165 8 17 18 43 24 58 6
16 15 25 21 22 6 -3 7 1 4 10 -4 9 8 46 26 83 36 74 61 130 82 180 7 17 16 32
20 32 5 0 8 9 8 20 0 11 5 20 10 20 6 0 10 11 10 25 0 14 5 25 10 25 6 0 10 7
10 15 0 8 4 23 9 33 37 74 51 106 51 118 0 8 5 14 10 14 6 0 10 9 10 21 0 11
5 17 10 14 6 -4 10 5 10 20 0 15 4 24 10 20 6 -4 10 7 10 24 0 17 5 31 10 31
6 0 10 9 10 20 0 11 5 20 10 20 6 0 10 7 10 16 0 8 7 22 15 31 8 8 13 19 10
24 -4 5 -2 9 2 9 9 0 22 26 59 115 9 22 25 60 36 85 21 49 36 84 63 145 36 82
77 171 96 208 10 22 19 45 19 53 0 8 5 14 10 14 6 0 10 9 10 20 0 11 5 20 10
20 6 0 10 9 10 19 0 11 5 23 10 26 6 3 10 15 10 26 0 10 5 19 10 19 6 0 10 9
10 19 0 11 5 23 10 26 6 3 10 15 10 26 0 10 5 19 10 19 6 0 10 9 10 20 0 11 5
20 10 20 6 0 10 12 10 26 0 14 4 23 10 19 6 -4 10 5 10 19 0 14 5 26 10 26 6
0 10 9 10 20 0 11 5 20 10 20 6 0 10 11 10 25 0 14 5 25 10 25 6 0 10 9 10 20
0 11 5 20 10 20 6 0 10 9 10 20 0 11 5 20 10 20 6 0 10 9 10 20 0 11 5 20 10
20 6 0 10 6 10 13 0 7 23 59 50 115 28 56 50 106 50 110 0 8 33 83 50 114 6
10 10 25 10 33 0 8 5 15 10 15 6 0 10 6 10 14 0 8 9 33 20 55 11 23 29 59 40
82 11 22 20 47 20 55 0 8 5 14 10 14 6 0 10 9 10 20 0 11 5 20 10 20 6 0 10 9
10 20 0 11 5 20 10 20 6 0 10 11 10 25 0 14 5 25 10 25 6 0 10 9 10 19 0 11 5
23 10 26 6 3 10 15 10 26 0 10 5 19 10 19 6 0 10 9 10 20 0 11 5 20 10 20 6 0
10 9 10 20 0 11 5 20 10 20 6 0 10 11 10 25 0 14 5 25 10 25 6 0 10 9 10 20 0
11 5 20 10 20 6 0 10 11 10 25 0 14 5 25 10 25 6 0 10 9 10 20 0 11 5 20 10
20 6 0 10 9 10 20 0 11 5 20 10 20 6 0 10 9 10 20 0 11 5 20 10 20 6 0 10 11
10 25 0 14 5 25 10 25 6 0 10 9 10 20 0 11 5 20 10 20 6 0 10 6 10 13 0 8 13
38 30 68 16 30 30 62 30 72 0 9 5 17 10 17 6 0 10 9 10 19 0 11 5 23 10 26 6
3 10 17 10 31 0 13 5 24 10 24 6 0 10 9 10 20 0 11 5 20 10 20 6 0 10 6 10 14
0 8 8 31 19 53 10 21 33 67 50 102 17 35 31 70 31 77 0 8 5 14 10 14 6 0 10 9
10 20 0 11 5 20 10 20 6 0 10 9 10 20 0 11 9 35 20 55 11 20 20 42 20 50 0 8
5 15 10 15 6 0 10 9 10 19 0 11 6 21 13 24 16 5 -10 57 -30 57 -7 0 -13 4 -13
8 0 10 -70 46 -110 58 -33 9 -202 21 -420 30 l-176 6 -29 -38z m-648 -1039
c-7 -14 -15 -25 -19 -25 -5 0 -8 -9 -8 -20 0 -11 -4 -20 -10 -20 -5 0 -10 -7
-10 -15 0 -8 -4 -15 -10 -15 -5 0 -10 -9 -10 -20 0 -11 -4 -20 -10 -20 -5 0
-10 -7 -10 -15 0 -8 -4 -15 -10 -15 -5 0 -10 -7 -10 -15 0 -9 -5 -21 -10 -28
-22 -26 -62 -91 -90 -147 -16 -32 -34 -61 -40 -65 -6 -3 -8 -11 -5 -16 4 -5 2
-9 -2 -9 -5 0 -20 -22 -34 -50 -13 -27 -27 -50 -31 -50 -5 0 -8 -7 -8 -15 0
-8 -4 -15 -10 -15 -5 0 -10 -7 -10 -15 0 -8 -4 -15 -9 -15 -5 0 -11 -8 -14
-17 -8 -24 -40 -77 -49 -81 -5 -2 -8 -10 -8 -18 0 -8 -4 -14 -10 -14 -5 0 -10
-7 -10 -15 0 -8 -4 -15 -10 -15 -5 0 -10 -6 -10 -13 0 -7 -8 -22 -18 -33 -10
-10 -25 -34 -32 -51 -8 -18 -18 -33 -22 -33 -5 0 -8 -7 -8 -15 0 -8 -4 -15
-10 -15 -5 0 -10 -8 -10 -18 0 -10 -9 -24 -20 -32 -11 -8 -20 -20 -20 -28 0
-7 -9 -22 -20 -34 -11 -12 -20 -28 -20 -35 0 -7 -4 -13 -8 -13 -5 0 -19 -20
-32 -45 -13 -25 -27 -45 -32 -45 -4 0 -8 -6 -8 -13 0 -7 -8 -22 -19 -33 -10
-11 -24 -31 -31 -44 -7 -13 -17 -29 -22 -34 -21 -25 -108 -167 -108 -176 0 -5
-4 -10 -10 -10 -5 0 -10 -7 -10 -15 0 -8 -4 -15 -10 -15 -5 0 -10 -7 -10 -15
0 -8 -4 -15 -10 -15 -5 0 -10 -6 -10 -13 0 -7 -9 -23 -20 -35 -11 -12 -20 -25
-20 -30 0 -4 -8 -17 -17 -28 -10 -10 -24 -31 -32 -46 -8 -15 -21 -36 -30 -45
-9 -10 -22 -30 -30 -45 -8 -16 -18 -28 -23 -28 -4 0 -8 -6 -8 -12 0 -7 -14
-29 -30 -48 -16 -19 -30 -40 -30 -47 0 -6 -3 -13 -7 -15 -5 -1 -32 -39 -62
-83 -30 -44 -63 -88 -73 -99 -10 -11 -18 -26 -18 -33 0 -7 -4 -13 -8 -13 -5 0
-15 -12 -23 -27 -8 -16 -18 -33 -24 -39 -5 -6 -21 -26 -35 -44 -27 -37 -72
-92 -80 -100 -3 -3 -30 -34 -60 -70 -30 -36 -68 -79 -85 -96 -16 -17 -65 -70
-108 -117 -43 -48 -83 -85 -88 -81 -5 3 -9 -3 -9 -12 0 -10 -3 -15 -6 -12 -3
4 -29 -16 -57 -43 -28 -27 -57 -49 -64 -49 -7 0 -13 -4 -13 -10 0 -5 -7 -10
-16 -10 -8 0 -12 -4 -9 -10 3 -5 -1 -10 -9 -10 -9 0 -16 -4 -16 -10 0 -5 -7
-10 -15 -10 -8 0 -15 -4 -15 -10 0 -5 -7 -10 -15 -10 -8 0 -15 -4 -15 -10 0
-5 -7 -10 -15 -10 -8 0 -15 -4 -15 -10 0 -5 -7 -10 -15 -10 -8 0 -15 -4 -15
-10 0 -5 -7 -10 -15 -10 -8 0 -15 -4 -15 -10 0 -5 -9 -10 -20 -10 -11 0 -20
-4 -20 -10 0 -5 -9 -10 -20 -10 -11 0 -20 -3 -20 -7 0 -9 -49 -33 -67 -33 -7
0 -13 -4 -13 -10 0 -5 -9 -10 -19 -10 -11 0 -23 -4 -26 -10 -3 -5 -17 -10 -31
-10 -13 0 -24 -4 -24 -10 0 -5 -13 -10 -29 -10 -17 0 -33 -4 -36 -10 -3 -5
-20 -10 -36 -10 -17 0 -38 -4 -47 -9 -9 -5 -50 -10 -89 -13 l-73 -4 0 68 c0
37 5 70 10 73 6 3 10 31 10 61 0 30 5 54 10 54 6 0 10 18 10 39 0 22 5 43 10
46 6 3 10 19 10 35 0 16 5 32 10 35 6 3 10 20 10 36 0 18 4 28 10 24 6 -4 10
8 10 29 0 20 5 36 10 36 6 0 10 11 10 25 0 14 5 25 10 25 6 0 10 12 10 26 0
14 4 23 10 19 6 -4 10 7 10 25 0 18 4 29 10 25 6 -4 10 5 10 19 0 14 5 26 10
26 6 0 10 6 9 13 -3 26 1 38 13 31 6 -4 8 -3 5 4 -4 5 -4 18 -1 27 6 13 9 14
16 3 7 -9 8 -6 5 10 -3 12 0 28 6 35 7 7 13 19 15 27 2 8 9 18 15 22 7 4 8 8
4 8 -7 0 29 76 43 90 3 3 10 14 16 25 34 63 50 91 61 103 7 7 20 30 30 50 9
20 20 39 23 42 4 3 17 25 31 50 13 25 32 54 42 64 9 11 17 26 17 33 0 7 4 13
9 13 5 0 13 9 16 20 3 11 12 26 20 33 7 8 29 39 49 69 19 31 41 62 48 69 7 8
27 34 43 59 33 49 43 63 63 85 7 8 11 15 7 15 -3 0 10 16 30 35 19 20 35 40
35 45 0 4 17 26 38 48 55 60 100 112 95 112 -4 0 83 91 235 246 29 30 50 54
47 54 -7 0 68 72 155 150 35 30 80 71 101 90 66 61 243 200 254 200 4 0 12 6
20 13 25 24 53 45 112 85 34 23 68 48 76 57 9 8 20 15 26 15 6 0 11 5 11 10 0
6 7 10 15 10 8 0 15 5 15 10 0 6 7 10 15 10 8 0 15 5 15 10 0 6 9 10 20 10 11
0 20 5 20 10 0 6 7 10 15 10 8 0 15 5 15 10 0 6 9 10 19 10 11 0 21 3 23 8 4
10 128 72 144 72 8 0 14 5 14 10 0 6 7 10 15 10 8 0 23 4 33 9 71 36 224 83
377 115 11 2 21 4 22 5 0 0 -4 -10 -10 -24z"/>
<path d="M10585 15389 c-49 -4 -117 -12 -150 -18 -61 -11 -144 -25 -250 -41
-33 -5 -87 -14 -120 -19 -33 -5 -85 -13 -115 -17 -30 -4 -60 -12 -66 -19 -19
-19 -84 -152 -77 -159 4 -3 1 -6 -5 -6 -7 0 -12 -6 -12 -12 0 -16 -162 -342
-172 -346 -5 -2 -8 -12 -8 -23 0 -10 -4 -19 -10 -19 -5 0 -10 -12 -10 -26 0
-14 -4 -23 -10 -19 -6 4 -10 -5 -10 -19 0 -14 -4 -26 -10 -26 -5 0 -10 -9 -10
-21 0 -11 -4 -17 -10 -14 -6 4 -10 -5 -10 -20 0 -15 -4 -24 -10 -20 -6 4 -10
-5 -10 -20 0 -15 -4 -24 -10 -20 -6 4 -10 -5 -10 -19 0 -14 -4 -26 -10 -26 -5
0 -10 -9 -10 -20 0 -11 -4 -20 -10 -20 -5 0 -10 -9 -10 -20 0 -11 -4 -20 -10
-20 -5 0 -10 -9 -10 -20 0 -11 -4 -20 -10 -20 -5 0 -10 -9 -10 -20 0 -11 -4
-20 -10 -20 -5 0 -10 -9 -10 -20 0 -11 -4 -20 -10 -20 -5 0 -10 -9 -10 -20 0
-11 -4 -20 -10 -20 -5 0 -10 -9 -10 -19 0 -11 -3 -21 -8 -23 -10 -4 -95 -179
-95 -195 0 -7 -4 -13 -9 -13 -4 0 -8 -9 -8 -20 0 -11 -4 -20 -10 -20 -5 0 -10
-6 -10 -13 0 -18 -24 -67 -32 -67 -5 0 -8 -9 -8 -20 0 -11 -4 -20 -10 -20 -5
0 -10 -6 -10 -13 0 -18 -24 -67 -32 -67 -5 0 -8 -9 -8 -20 0 -11 -4 -20 -10
-20 -5 0 -10 -9 -10 -20 0 -11 -4 -20 -10 -20 -5 0 -10 -9 -10 -20 0 -11 -4
-20 -10 -20 -5 0 -10 -9 -10 -20 0 -11 -4 -20 -10 -20 -5 0 -10 -9 -10 -20 0
-11 -4 -20 -10 -20 -5 0 -10 -12 -10 -26 0 -14 -4 -23 -10 -19 -6 4 -10 -5
-10 -20 0 -15 -4 -24 -10 -20 -6 4 -10 -5 -10 -19 0 -14 -4 -26 -10 -26 -5 0
-10 -9 -10 -20 0 -11 -4 -20 -10 -20 -5 0 -10 -9 -10 -20 0 -11 -4 -20 -10
-20 -5 0 -10 -9 -10 -20 0 -11 -4 -20 -10 -20 -5 0 -10 -9 -10 -20 0 -11 -4
-20 -10 -20 -5 0 -10 -9 -10 -20 0 -11 -4 -20 -10 -20 -5 0 -10 -9 -10 -20 0
-11 -4 -20 -10 -20 -5 0 -10 -9 -10 -20 0 -11 -4 -20 -10 -20 -5 0 -10 -9 -10
-20 0 -11 -4 -20 -10 -20 -5 0 -10 -9 -10 -20 0 -11 -4 -20 -10 -20 -5 0 -10
-9 -10 -19 0 -11 -3 -21 -8 -23 -10 -4 -75 -136 -75 -153 0 -8 -4 -15 -9 -15
-4 0 -8 -9 -8 -20 0 -11 -4 -20 -10 -20 -5 0 -10 -9 -10 -20 0 -11 -4 -20 -10
-20 -5 0 -10 -9 -10 -19 0 -11 -3 -21 -7 -23 -11 -4 -53 -87 -53 -104 0 -8 -4
-14 -10 -14 -5 0 -10 -9 -10 -20 0 -11 -4 -20 -10 -20 -5 0 -10 -9 -10 -20 0
-11 -4 -20 -10 -20 -5 0 -10 -9 -10 -20 0 -11 -4 -20 -10 -20 -5 0 -10 -9 -10
-20 0 -11 -4 -20 -10 -20 -5 0 -10 -9 -10 -20 0 -11 -4 -20 -10 -20 -5 0 -10
-9 -10 -20 0 -11 -4 -20 -10 -20 -5 0 -10 -9 -10 -20 0 -11 -4 -20 -10 -20 -5
0 -10 -9 -10 -20 0 -11 -4 -20 -10 -20 -5 0 -10 -11 -10 -25 0 -14 -4 -25 -10
-25 -5 0 -10 -9 -10 -21 0 -11 -4 -17 -10 -14 -6 4 -10 -5 -10 -19 0 -14 -4
-26 -10 -26 -5 0 -10 -10 -10 -22 0 -19 -2 -20 -10 -8 -7 11 -10 7 -10 -18 0
-20 -4 -31 -10 -27 -6 4 -10 -5 -10 -20 0 -15 -4 -24 -10 -20 -6 4 -10 -5 -10
-20 0 -15 -4 -24 -10 -20 -6 4 -10 -5 -10 -20 0 -15 -4 -24 -10 -20 -6 4 -10
-5 -10 -20 0 -15 -4 -24 -10 -20 -6 4 -10 -5 -10 -19 0 -14 -4 -26 -10 -26 -5
0 -10 -9 -10 -20 0 -11 -4 -20 -10 -20 -5 0 -10 -9 -10 -20 0 -11 -4 -20 -8
-20 -4 0 -17 -21 -27 -47 -11 -27 -75 -158 -142 -293 -68 -134 -123 -250 -123
-257 0 -7 -4 -13 -10 -13 -5 0 -10 -9 -10 -20 0 -11 -4 -20 -10 -20 -5 0 -10
-9 -10 -21 0 -11 -4 -17 -10 -14 -5 3 -10 -2 -10 -13 0 -20 -60 -145 -72 -150
-5 -2 -8 -12 -8 -23 0 -10 -4 -19 -10 -19 -5 0 -10 -9 -10 -20 0 -11 -5 -20
-11 -20 -6 0 -8 -7 -5 -15 3 -9 -1 -18 -10 -22 -8 -3 -13 -12 -10 -20 3 -7 -1
-16 -10 -20 -8 -3 -13 -11 -10 -19 3 -7 -2 -18 -9 -24 -8 -7 -12 -16 -10 -21
3 -4 -3 -12 -12 -18 -10 -5 -14 -13 -10 -17 4 -4 0 -16 -10 -26 -9 -10 -13
-18 -10 -18 9 0 -45 -104 -55 -108 -5 -2 -8 -12 -8 -23 0 -10 -4 -19 -10 -19
-5 0 -10 -6 -10 -13 0 -7 -49 -111 -110 -232 -60 -121 -110 -225 -110 -232 0
-7 -4 -13 -10 -13 -5 0 -10 -9 -10 -20 0 -11 -4 -20 -10 -20 -5 0 -10 -9 -10
-20 0 -11 -4 -20 -10 -20 -5 0 -10 -9 -10 -20 0 -11 -4 -20 -10 -20 -5 0 -10
-9 -10 -20 0 -11 -5 -20 -11 -20 -6 0 -8 -7 -5 -15 3 -9 -1 -18 -10 -22 -8 -3
-13 -12 -10 -20 3 -7 -1 -16 -10 -20 -8 -3 -13 -12 -10 -20 3 -7 -1 -16 -10
-20 -8 -3 -13 -12 -10 -20 3 -7 -1 -16 -10 -20 -8 -3 -13 -12 -10 -19 3 -7 -2
-18 -12 -23 -9 -5 -13 -13 -9 -17 4 -4 1 -14 -7 -23 -8 -9 -14 -18 -14 -21 1
-12 -38 -90 -44 -90 -5 0 -8 -9 -8 -20 0 -11 -5 -20 -10 -20 -6 0 -10 -3 -9
-7 2 -16 -14 -53 -22 -53 -5 0 -9 -9 -9 -20 0 -11 -4 -20 -10 -20 -5 0 -10 -9
-10 -20 0 -11 -4 -20 -10 -20 -5 0 -10 -6 -10 -13 0 -7 -49 -111 -110 -232
-60 -121 -110 -225 -110 -232 0 -7 -4 -13 -10 -13 -5 0 -10 -9 -10 -20 0 -11
-4 -20 -8 -20 -5 0 -15 -18 -22 -40 -7 -22 -17 -40 -22 -40 -5 0 -6 -5 -2 -11
3 -6 0 -15 -7 -20 -8 -5 -14 -28 -16 -59 -1 -27 2 -48 7 -45 5 3 12 -4 15 -16
7 -20 11 -21 109 -15 55 3 122 9 149 12 51 6 101 -1 93 -14 -3 -5 8 -7 23 -4
29 4 62 -24 197 -169 62 -66 90 -89 108 -89 8 0 16 -6 18 -12 3 -8 33 -14 86
-16 80 -4 81 -4 88 22 3 14 10 26 15 26 5 0 9 9 9 20 0 11 3 20 8 20 4 0 13
13 20 30 7 16 24 45 37 64 13 19 21 37 17 40 -3 3 -1 6 4 6 5 0 23 26 39 58
17 31 33 59 36 62 3 3 12 20 20 38 8 17 16 32 20 32 3 0 11 16 19 35 8 19 17
35 22 35 4 0 8 9 8 20 0 11 4 20 8 20 5 0 14 16 22 35 8 19 17 35 22 35 4 0 8
9 8 19 0 11 3 21 8 23 4 2 27 42 51 91 24 48 48 87 54 87 6 0 7 3 4 7 -4 3 -2
12 4 19 6 8 28 46 48 86 53 103 85 162 91 168 3 3 16 28 30 55 14 28 28 52 33
53 4 2 7 12 7 22 0 10 7 21 16 24 8 3 12 10 9 16 -3 6 1 13 9 16 9 3 16 14 16
23 0 10 8 26 18 37 9 10 28 42 42 69 14 28 28 52 33 53 4 2 7 11 7 20 0 10 9
28 20 42 11 14 20 30 20 37 0 6 3 13 8 15 4 2 27 42 52 91 24 48 48 87 53 87
4 0 6 4 2 9 -3 5 2 17 11 25 8 9 12 16 8 16 -4 0 1 9 12 21 10 12 18 24 18 28
-3 15 20 50 29 44 6 -3 7 -1 3 5 -3 6 5 30 19 54 13 24 37 68 52 98 15 30 30
57 33 60 3 3 11 17 19 32 l14 27 27 -29 c16 -17 31 -30 34 -30 4 0 16 -9 28
-20 12 -11 28 -20 35 -20 8 0 11 -4 8 -10 -3 -5 3 -10 14 -10 12 0 21 -4 21
-10 0 -5 9 -10 21 -10 11 0 17 -4 14 -10 -4 -6 7 -10 25 -10 18 0 29 -4 25
-10 -4 -6 8 -10 30 -10 22 0 34 -4 30 -10 -4 -6 12 -10 40 -10 25 0 44 -3 42
-7 -3 -5 84 -8 193 -8 109 0 193 3 187 7 -7 4 20 8 58 8 49 0 65 3 55 10 -11
7 1 10 40 10 39 0 51 3 40 10 -11 7 -2 10 33 10 30 0 46 4 42 10 -4 6 8 10 30
10 22 0 34 4 30 10 -4 6 7 10 24 10 17 0 31 5 31 10 0 6 11 10 25 10 14 0 25
5 25 10 0 6 11 10 25 10 14 0 25 5 25 10 0 6 11 10 25 10 14 0 25 5 25 10 0 6
9 10 20 10 11 0 20 5 20 10 0 6 11 10 25 10 14 0 25 5 25 10 0 6 9 10 20 10
11 0 20 5 20 10 0 6 9 10 20 10 11 0 20 5 20 10 0 6 9 10 20 10 11 0 20 3 20
8 0 4 25 18 55 32 30 14 55 28 55 33 0 4 5 7 11 7 6 0 33 16 59 35 26 19 51
35 55 35 4 0 26 12 49 28 22 15 59 36 81 47 22 11 42 23 43 28 2 4 13 7 23 7
11 0 17 5 14 10 -3 6 1 10 9 10 9 0 16 5 16 10 0 6 7 10 15 10 8 0 15 5 15 10
0 6 7 10 15 10 8 0 15 5 15 10 0 6 7 10 15 10 8 0 15 5 15 10 0 6 7 10 15 10
8 0 15 5 15 10 0 6 7 10 15 10 8 0 15 5 15 10 0 6 7 10 15 10 8 0 15 5 15 10
0 6 6 10 13 10 7 0 19 9 27 20 8 11 20 20 27 20 7 0 13 5 13 10 0 6 5 10 11
10 6 0 16 6 23 13 7 6 28 23 46 37 18 14 39 31 46 38 7 6 16 12 20 12 3 0 14
8 23 18 9 10 26 25 38 33 63 43 336 307 433 419 25 29 68 77 95 107 28 31 57
65 65 77 8 11 27 35 42 51 15 17 28 35 28 40 0 6 9 17 20 25 11 8 20 20 20 27
0 7 5 13 10 13 6 0 10 7 10 15 0 8 4 15 8 15 4 0 16 14 26 30 9 17 28 41 42
55 13 13 24 31 24 40 0 8 3 15 8 15 4 0 23 25 42 55 19 30 38 55 43 55 4 0 7
6 7 13 0 7 8 22 18 33 9 10 23 31 31 47 8 15 18 27 23 27 4 0 8 7 8 15 0 8 5
15 10 15 6 0 10 6 10 13 0 7 8 22 18 33 9 11 18 26 20 34 2 8 8 17 13 18 5 2
7 8 3 13 -3 5 -1 9 5 9 5 0 22 27 37 60 15 33 31 60 36 60 5 0 6 5 3 10 -3 6
-2 10 2 10 5 0 22 26 38 58 17 31 32 59 35 62 3 3 16 28 30 55 14 28 28 51 33
53 4 2 7 10 7 17 0 7 14 39 30 70 17 31 30 63 30 71 0 8 5 14 10 14 6 0 10 9
10 20 0 11 5 20 10 20 6 0 10 12 10 26 0 14 4 23 10 19 6 -4 10 5 10 19 0 14
5 26 10 26 6 0 10 11 10 25 0 14 5 25 10 25 6 0 10 12 10 26 0 14 4 23 10 19
6 -4 10 7 10 24 0 17 5 31 10 31 6 0 10 11 10 25 0 14 5 25 10 25 6 0 10 11
10 25 0 14 5 25 10 25 6 0 10 14 10 30 0 17 5 30 10 30 6 0 10 14 10 31 0 17
4 28 10 24 6 -4 10 8 10 29 0 20 5 36 10 36 6 0 10 16 10 35 0 19 5 35 10 35
6 0 10 16 10 36 0 21 4 33 10 29 6 -4 10 12 10 42 0 35 3 44 10 33 7 -11 10 0
10 38 0 33 4 51 10 47 6 -4 10 13 10 44 0 27 5 53 10 56 6 3 10 30 10 60 0 32
5 55 12 57 18 6 18 590 1 595 -8 3 -13 22 -13 49 0 24 -4 44 -10 44 -5 0 -10
16 -10 35 0 19 -4 35 -10 35 -5 0 -10 11 -10 25 0 14 -4 25 -10 25 -5 0 -10
11 -10 25 0 14 -4 25 -10 25 -5 0 -10 9 -10 20 0 11 -4 20 -8 20 -5 0 -15 12
-23 28 -7 15 -20 34 -29 43 -8 9 -22 26 -30 39 -24 36 -108 120 -119 120 -6 0
-11 5 -11 10 0 6 -7 10 -16 10 -8 0 -12 5 -9 10 3 6 -3 10 -14 10 -12 0 -21 5
-21 10 0 6 -9 10 -21 10 -11 0 -17 5 -14 10 4 6 -5 10 -19 10 -14 0 -26 5 -26
10 0 6 -11 10 -25 10 -14 0 -25 5 -25 10 0 6 -16 10 -36 10 -21 0 -33 4 -29
10 4 6 -11 10 -39 10 -26 0 -46 5 -48 12 -6 17 -430 17 -436 0 -2 -7 -25 -12
-58 -12 -34 0 -53 -4 -49 -10 4 -6 -17 -10 -55 -10 -38 0 -59 -4 -55 -10 4 -6
-15 -10 -50 -10 -35 0 -54 -4 -50 -10 4 -6 -13 -10 -45 -10 -32 0 -49 -4 -45
-10 4 -6 -12 -10 -40 -10 -28 0 -44 -4 -40 -10 4 -6 -10 -10 -34 -10 -23 0
-41 -4 -41 -10 0 -5 -16 -10 -35 -10 -19 0 -35 -4 -35 -10 0 -5 -13 -10 -30
-10 -16 0 -30 -4 -30 -10 0 -5 -13 -10 -30 -10 -16 0 -30 -4 -30 -10 0 -5 -14
-10 -31 -10 -17 0 -28 -4 -24 -10 4 -6 -5 -10 -19 -10 -14 0 -26 -4 -26 -10 0
-5 -9 -10 -20 -10 -11 0 -20 -4 -20 -10 0 -5 -9 -10 -20 -10 -11 0 -20 -4 -20
-10 0 -5 -8 -10 -17 -10 -13 0 -14 3 -5 12 7 7 12 20 12 30 0 10 5 18 10 18 6
0 10 11 10 24 0 14 5 28 10 31 6 3 10 21 10 40 0 19 5 37 10 40 6 3 10 23 10
44 0 20 5 42 11 48 19 19 5 56 -27 74 -39 21 -165 29 -289 18z m930 -1169 c3
-5 17 -10 31 -10 13 0 24 -4 24 -10 0 -5 7 -10 15 -10 8 0 15 -4 15 -10 0 -5
7 -10 16 -10 8 0 12 -4 9 -10 -3 -5 -2 -10 2 -10 16 0 51 -86 63 -150 8 -45 8
-82 0 -138 -12 -86 -29 -167 -40 -197 -4 -11 -13 -40 -20 -65 -13 -46 -26 -82
-41 -112 -5 -10 -9 -27 -9 -38 0 -11 -4 -20 -10 -20 -5 0 -10 -11 -10 -25 0
-14 -4 -25 -10 -25 -5 0 -10 -9 -10 -19 0 -10 -13 -45 -30 -76 -16 -31 -30
-63 -30 -71 0 -8 -5 -14 -12 -14 -6 0 -9 -3 -5 -6 10 -10 -124 -264 -136 -257
-5 3 -7 2 -4 -4 7 -11 -14 -63 -25 -63 -5 0 -8 -9 -8 -19 0 -11 -3 -21 -7 -23
-10 -4 -42 -57 -50 -80 -3 -10 -9 -18 -14 -18 -5 0 -9 -7 -9 -15 0 -8 -4 -15
-10 -15 -5 0 -10 -7 -10 -15 0 -8 -4 -15 -10 -15 -5 0 -10 -5 -10 -11 0 -8
-66 -111 -92 -144 -5 -5 -48 -64 -96 -130 -48 -66 -106 -140 -127 -165 -58
-66 -294 -298 -356 -350 -57 -48 -141 -121 -149 -130 -3 -3 -21 -17 -40 -30
-19 -13 -37 -27 -40 -30 -10 -12 -70 -51 -70 -46 0 3 -12 -6 -26 -19 -15 -14
-30 -22 -35 -19 -5 3 -9 0 -9 -5 0 -6 -9 -11 -20 -11 -11 0 -19 -6 -18 -12 2
-8 -5 -12 -16 -10 -11 2 -15 -1 -11 -7 3 -7 -2 -11 -14 -11 -12 0 -21 -4 -21
-10 0 -5 -9 -10 -21 -10 -11 0 -17 -4 -14 -10 3 -5 -3 -10 -14 -10 -12 0 -21
-4 -21 -10 0 -5 -9 -10 -20 -10 -11 0 -20 -4 -20 -10 0 -5 -9 -10 -20 -10 -11
0 -20 -4 -20 -10 0 -5 -11 -10 -25 -10 -14 0 -25 -4 -25 -10 0 -5 -11 -10 -25
-10 -14 0 -25 -4 -25 -10 0 -5 -14 -10 -31 -10 -17 0 -28 -4 -24 -10 4 -6 -8
-10 -27 -10 -19 0 -38 -4 -43 -9 -22 -21 -271 -39 -288 -22 -6 6 -28 11 -49
11 -21 0 -38 5 -38 10 0 6 -11 10 -25 10 -14 0 -25 5 -25 10 0 6 -7 10 -15 10
-8 0 -15 5 -15 10 0 6 -6 10 -14 10 -11 0 -12 5 -3 25 7 14 15 25 20 25 4 0 7
9 7 20 0 11 5 20 10 20 6 0 10 9 10 20 0 11 5 20 10 20 6 0 10 9 10 20 0 11 5
20 10 20 6 0 10 9 10 20 0 11 5 20 10 20 6 0 10 6 10 14 0 17 42 100 53 104 4
2 7 12 7 23 0 10 4 19 8 19 4 0 15 15 23 33 8 17 29 59 46 92 17 33 93 186
169 340 76 154 141 282 146 283 4 2 8 12 8 23 0 10 5 19 10 19 6 0 10 7 10 15
0 8 5 15 10 15 6 0 10 9 10 20 0 11 5 20 10 20 6 0 10 9 10 20 0 11 5 20 10
20 6 0 10 9 10 20 0 11 4 20 8 20 5 0 14 16 22 35 8 19 17 35 22 35 4 0 8 7 8
15 0 8 5 15 10 15 6 0 10 9 10 20 0 11 5 20 10 20 6 0 10 9 10 20 0 11 4 20 8
20 4 0 21 26 37 58 17 31 33 59 37 62 10 7 42 83 40 93 -1 4 3 7 8 7 6 0 15
12 21 28 11 31 52 115 59 122 5 5 31 53 84 155 17 33 34 62 39 63 4 2 7 10 7
18 0 8 5 14 10 14 6 0 10 9 10 20 0 11 5 20 10 20 6 0 10 9 10 20 0 11 5 20
10 20 6 0 10 7 10 15 0 8 12 29 28 47 49 60 234 238 241 233 4 -2 14 5 21 16
8 10 20 19 26 19 7 0 14 4 16 8 4 11 198 142 209 142 5 0 9 5 9 10 0 6 9 10
20 10 11 0 20 5 20 10 0 6 9 10 20 10 11 0 20 5 20 10 0 6 11 10 25 10 14 0
25 5 25 10 0 6 11 10 24 10 14 0 28 5 31 10 3 6 19 10 36 10 16 0 29 5 29 10
0 6 17 10 38 10 20 0 44 5 52 10 20 13 287 13 295 0z"/>
<path d="M8415 9428 c-2 -7 -30 -130 -61 -273 -65 -296 -72 -374 -37 -440 28
-53 67 -89 128 -117 43 -20 66 -23 165 -22 133 0 198 19 268 80 84 72 111 143
183 494 28 135 53 255 56 268 5 22 3 22 -83 22 l-89 0 -54 -263 c-59 -292 -80
-358 -126 -403 -54 -55 -163 -70 -242 -34 -74 33 -74 33 -3 363 35 160 65 302
68 315 4 21 2 22 -82 22 -60 0 -88 -4 -91 -12z"/>
<path d="M9931 9034 c-46 -223 -86 -416 -89 -430 -4 -24 -4 -24 80 -24 l84 0
87 423 c48 232 88 425 87 430 0 4 -37 7 -82 7 l-83 0 -84 -406z"/>
<path d="M12366 9423 c-2 -10 -41 -196 -86 -413 -44 -217 -83 -403 -86 -412
-5 -16 3 -18 80 -18 47 0 86 2 86 4 0 26 76 351 89 381 49 110 205 167 226 83
3 -13 -15 -119 -40 -236 -25 -117 -45 -217 -45 -222 0 -6 35 -10 83 -10 l82 0
44 207 c57 265 59 288 33 347 -44 99 -181 115 -305 36 -27 -17 -47 -24 -47
-17 0 6 13 74 29 150 l29 137 -83 0 c-71 0 -84 -3 -89 -17z"/>
<path d="M13323 9428 c3 -7 56 -125 117 -263 l113 -250 -32 -155 c-17 -85 -31
-161 -31 -167 0 -10 24 -13 84 -13 72 0 85 3 90 18 3 9 19 81 35 159 l30 142
162 223 c89 123 177 244 196 271 l35 47 -104 0 -103 -1 -115 -160 c-63 -89
-120 -168 -126 -177 -10 -14 -14 -12 -26 18 -8 19 -43 99 -78 178 l-63 142
-95 0 c-71 0 -93 -3 -89 -12z"/>
<path d="M16430 9388 c-6 -29 -45 -215 -86 -413 -41 -198 -77 -368 -80 -377
-5 -16 4 -18 84 -18 l90 0 12 53 c6 28 45 214 86 412 41 198 77 368 80 378 5
15 -4 17 -84 17 l-90 0 -12 -52z"/>
<path d="M19730 9436 c0 -8 -171 -821 -176 -838 -5 -16 4 -18 85 -18 l89 0 15
68 c9 37 26 118 39 180 l23 114 72 -4 c60 -3 76 -8 99 -28 29 -27 81 -131 124
-250 l28 -75 96 -3 c53 -1 96 -1 96 2 0 20 -115 256 -149 305 -36 53 -39 61
-21 61 38 0 128 41 162 74 45 44 69 96 75 165 11 122 -51 217 -155 240 -49 10
-502 17 -502 7z m462 -166 c27 -33 20 -101 -13 -137 -45 -47 -75 -56 -216 -61
l-131 -5 24 114 c13 63 24 116 24 117 0 2 66 2 146 0 141 -3 146 -4 166 -28z"/>
<path d="M21675 9428 c-4 -12 -65 -296 -65 -302 0 -2 -18 14 -40 35 -91 87
-245 76 -342 -24 -115 -119 -152 -359 -74 -477 41 -62 88 -85 176 -85 75 0 96
8 159 52 l23 17 -7 -32 -7 -32 80 0 c76 0 80 1 86 24 17 68 176 811 176 822 0
19 -159 20 -165 2z m-185 -351 c42 -21 70 -74 70 -132 0 -161 -112 -281 -216
-232 -50 24 -66 57 -66 129 2 165 111 286 212 235z"/>
<path d="M21987 9403 c-4 -21 -9 -53 -13 -70 l-6 -33 84 0 84 0 12 58 c18 87
22 82 -72 82 l-83 0 -6 -37z"/>
<path d="M25746 9423 c-3 -10 -41 -193 -86 -408 -45 -214 -84 -400 -87 -412
l-5 -23 336 0 336 0 6 28 c3 15 10 43 15 62 5 19 9 38 9 43 0 4 -113 7 -251 7
-197 0 -250 3 -246 13 2 6 15 60 27 120 l23 107 223 0 c247 0 225 -6 239 70 4
19 9 43 11 53 5 16 -10 17 -219 17 l-224 0 22 98 22 97 230 3 230 2 12 57 c6
31 11 62 11 70 0 10 -59 13 -314 13 -291 0 -315 -1 -320 -17z"/>
<path d="M27620 9434 c0 -6 -164 -796 -174 -836 -4 -16 5 -18 74 -18 l79 0 7
45 c3 25 9 47 13 49 4 3 16 -9 26 -25 28 -42 107 -79 169 -79 95 0 207 75 256
169 46 91 63 231 39 325 -34 135 -181 194 -315 126 -32 -16 -60 -30 -60 -30
-1 0 9 48 22 108 13 59 26 122 30 140 l6 32 -86 0 c-47 0 -86 -3 -86 -6z m296
-375 c55 -52 55 -156 1 -261 -38 -73 -81 -102 -140 -94 -45 5 -74 28 -93 73
-39 91 15 255 97 297 43 21 103 15 135 -15z"/>
<path d="M31576 9423 c-2 -10 -41 -196 -86 -413 -44 -217 -83 -403 -86 -412
-5 -16 3 -18 80 -18 47 0 86 2 86 4 0 26 76 351 89 381 49 110 205 167 226 83
3 -13 -15 -119 -40 -236 -25 -117 -45 -217 -45 -222 0 -6 35 -10 83 -10 l82 0
44 207 c57 265 59 288 33 347 -44 99 -181 115 -305 36 -27 -17 -47 -24 -47
-17 0 6 13 74 29 150 l29 137 -83 0 c-71 0 -84 -3 -89 -17z"/>
<path d="M33315 9418 c-8 -36 -175 -829 -175 -834 0 -2 36 -4 80 -4 74 0 80 1
85 23 3 12 32 166 66 342 33 176 63 322 65 324 2 2 4 -13 4 -35 0 -28 28 -629
30 -652 0 -1 39 -1 86 0 l85 3 154 340 c85 187 155 335 155 329 0 -10 -123
-596 -136 -650 -6 -24 -5 -24 74 -24 68 0 81 3 86 18 3 9 37 193 76 407 39
215 74 400 77 413 5 22 5 22 -124 22 l-129 0 -134 -292 -135 -293 -6 85 c-4
47 -10 178 -14 293 l-8 207 -128 0 c-125 0 -129 -1 -134 -22z"/>
<path d="M35717 9403 c-4 -21 -9 -53 -13 -70 l-6 -33 84 0 84 0 12 58 c18 87
22 82 -72 82 l-83 0 -6 -37z"/>
<path d="M31255 9361 c-84 -53 -91 -60 -104 -104 -14 -46 -15 -47 -56 -47 -42
0 -42 0 -49 -42 -4 -24 -9 -53 -13 -65 -5 -21 -2 -23 36 -23 23 0 41 -4 41 -9
0 -5 -16 -82 -35 -170 -51 -233 -46 -283 35 -315 41 -16 156 -22 176 -8 10 6
34 86 34 111 0 6 -20 11 -44 11 -68 0 -72 11 -46 137 12 60 29 138 37 175 l15
67 51 3 c51 3 51 3 59 43 4 22 10 50 13 63 5 21 2 22 -45 22 -27 0 -50 5 -50
10 0 6 9 51 20 101 12 51 19 93 18 94 -2 2 -43 -23 -93 -54z"/>
<path d="M9515 9205 c-21 -8 -59 -28 -83 -45 l-45 -32 7 41 6 41 -79 0 c-74 0
-79 -1 -85 -23 -3 -13 -31 -146 -61 -297 -31 -151 -58 -283 -61 -292 -5 -16 3
-18 80 -18 47 0 86 3 86 6 0 27 75 348 89 379 49 110 205 167 226 82 3 -12
-14 -119 -39 -237 -26 -117 -46 -217 -46 -222 0 -4 37 -8 83 -8 l83 0 47 228
c26 125 47 240 47 256 0 16 -10 50 -21 74 -36 73 -135 102 -234 67z"/>
<path d="M10465 9213 c-117 -26 -208 -112 -247 -235 -48 -156 0 -304 120 -371
131 -73 317 -30 398 93 15 22 24 43 21 46 -3 4 -36 12 -72 20 l-67 14 -28 -30
c-50 -53 -112 -64 -168 -30 -33 20 -62 71 -62 110 0 19 6 20 214 20 l213 0 6
56 c7 64 -5 150 -26 191 -24 44 -78 91 -126 108 -41 14 -130 18 -176 8z m147
-162 c19 -22 28 -42 28 -66 l0 -35 -131 0 -130 0 6 23 c10 34 38 70 76 95 48
34 112 26 151 -17z"/>
<path d="M11090 9205 c-57 -18 -124 -75 -151 -127 -11 -22 -19 -41 -17 -43 2
-1 40 -6 85 -9 77 -7 82 -6 88 13 16 50 115 67 161 28 22 -19 25 -28 20 -55
-9 -37 -13 -38 -136 -52 -187 -21 -254 -58 -279 -154 -23 -92 11 -174 89 -213
69 -35 151 -27 223 21 39 27 47 25 47 -11 0 -22 3 -23 83 -23 l82 0 -3 73 c-3
53 5 110 27 215 17 78 31 158 31 178 0 77 -52 140 -135 163 -54 15 -160 13
-215 -4z m146 -366 c-11 -59 -38 -100 -77 -119 -52 -27 -94 -26 -124 5 -39 38
-32 76 18 102 25 12 129 37 181 42 5 1 6 -13 2 -30z"/>
<path d="M11758 9206 c-129 -35 -198 -146 -154 -250 19 -45 54 -70 149 -106
126 -47 155 -61 161 -77 17 -43 -52 -79 -137 -70 -45 4 -56 10 -88 46 l-37 41
-76 -12 c-42 -6 -76 -15 -76 -20 0 -24 44 -90 79 -120 50 -42 94 -57 192 -65
145 -11 247 35 295 133 21 42 25 64 21 96 -11 80 -62 123 -205 168 -122 39
-134 46 -130 73 9 62 166 61 210 -2 14 -20 18 -21 92 -9 42 6 76 15 76 20 0
23 -31 76 -61 106 -59 57 -197 79 -311 48z"/>
<path d="M14260 9207 c-63 -18 -112 -50 -159 -104 -59 -67 -84 -139 -85 -248
0 -78 3 -96 26 -140 54 -103 126 -140 268 -140 80 1 103 5 145 25 69 34 131
99 168 178 28 60 31 77 31 157 0 132 -43 209 -142 255 -58 28 -185 36 -252 17z
m166 -133 c44 -21 64 -59 64 -122 0 -169 -127 -295 -239 -238 -48 25 -66 63
-65 136 1 169 121 280 240 224z"/>
<path d="M15832 9203 c-18 -9 -52 -38 -76 -64 l-43 -48 12 60 13 60 -81 -3
-80 -3 -64 -305 c-34 -168 -63 -308 -63 -312 0 -5 38 -8 84 -8 l83 0 22 108
c50 243 81 314 157 358 34 20 54 25 82 21 l38 -5 31 70 32 69 -25 9 c-37 14
-85 12 -122 -7z"/>
<path d="M17005 9205 c-21 -8 -59 -28 -83 -45 l-45 -32 7 41 6 41 -79 0 c-74
0 -79 -1 -85 -23 -3 -13 -31 -146 -61 -297 -31 -151 -58 -283 -61 -292 -5 -16
3 -18 80 -18 47 0 86 3 86 6 0 27 75 348 89 379 49 110 205 167 226 82 3 -12
-14 -119 -39 -237 -26 -117 -46 -217 -46 -222 0 -4 37 -8 83 -8 l83 0 47 228
c26 125 47 240 47 256 0 16 -10 50 -21 74 -36 73 -135 102 -234 67z"/>
<path d="M17745 9205 c-21 -8 -59 -28 -83 -45 l-45 -32 7 41 6 41 -79 0 c-74
0 -79 -1 -85 -23 -3 -13 -31 -146 -61 -297 -31 -151 -58 -283 -61 -292 -5 -16
3 -18 80 -18 47 0 86 3 86 6 0 27 75 348 89 379 49 110 205 167 226 82 3 -12
-14 -119 -39 -237 -26 -117 -46 -217 -46 -222 0 -4 37 -8 83 -8 l83 0 47 228
c26 125 47 240 47 256 0 16 -10 50 -21 74 -36 73 -135 102 -234 67z"/>
<path d="M18355 9213 c-117 -26 -208 -112 -247 -235 -48 -156 0 -304 120 -371
131 -73 317 -30 398 93 15 22 24 43 21 46 -3 4 -36 12 -72 20 l-67 14 -28 -30
c-50 -53 -112 -64 -168 -30 -33 20 -62 71 -62 110 0 19 6 20 214 20 l213 0 6
56 c7 64 -5 150 -26 191 -24 44 -78 91 -126 108 -41 14 -130 18 -176 8z m147
-162 c19 -22 28 -42 28 -66 l0 -35 -131 0 -130 0 6 23 c10 34 38 70 76 95 48
34 112 26 151 -17z"/>
<path d="M19112 9203 c-18 -9 -52 -38 -76 -64 l-43 -48 12 60 13 60 -81 -3
-80 -3 -64 -305 c-34 -168 -63 -308 -63 -312 0 -5 38 -8 84 -8 l83 0 22 108
c50 243 81 314 157 358 34 20 54 25 82 21 l38 -5 31 70 32 69 -25 9 c-37 14
-85 12 -122 -7z"/>
<path d="M20660 9205 c-57 -18 -124 -75 -151 -127 -11 -22 -19 -41 -17 -43 2
-1 40 -6 85 -9 77 -7 82 -6 88 13 16 50 115 67 161 28 22 -19 25 -28 20 -55
-9 -37 -13 -38 -136 -52 -187 -21 -254 -58 -279 -154 -23 -92 11 -174 89 -213
69 -35 151 -27 223 21 39 27 47 25 47 -11 0 -22 3 -23 83 -23 l82 0 -3 73 c-3
53 5 110 27 215 17 78 31 158 31 178 0 77 -52 140 -135 163 -54 15 -160 13
-215 -4z m146 -366 c-11 -59 -38 -100 -77 -119 -52 -27 -94 -26 -124 5 -39 38
-32 76 18 102 25 12 129 37 181 42 5 1 6 -13 2 -30z"/>
<path d="M22400 9205 c-57 -18 -124 -75 -151 -127 -11 -22 -19 -41 -17 -43 2
-1 40 -6 85 -9 77 -7 82 -6 88 13 16 50 115 67 161 28 22 -19 25 -28 20 -55
-9 -37 -13 -38 -136 -52 -187 -21 -254 -58 -279 -154 -23 -92 11 -174 89 -213
69 -35 151 -27 223 21 39 27 47 25 47 -11 0 -22 3 -23 83 -23 l82 0 -3 73 c-3
53 5 110 27 215 17 78 31 158 31 178 0 77 -52 140 -135 163 -54 15 -160 13
-215 -4z m146 -366 c-11 -59 -38 -100 -77 -119 -52 -27 -94 -26 -124 5 -39 38
-32 76 18 102 25 12 129 37 181 42 5 1 6 -13 2 -30z"/>
<path d="M23235 9205 c-21 -8 -59 -28 -83 -45 l-45 -32 7 41 6 41 -79 0 c-74
0 -79 -1 -85 -23 -3 -13 -31 -146 -61 -297 -31 -151 -58 -283 -61 -292 -5 -16
3 -18 80 -18 47 0 86 3 86 6 0 27 75 348 89 379 49 110 205 167 226 82 3 -12
-14 -119 -39 -237 -26 -117 -46 -217 -46 -222 0 -4 37 -8 83 -8 l83 0 47 228
c26 125 47 240 47 256 0 16 -10 50 -21 74 -36 73 -135 102 -234 67z"/>
<path d="M23837 9206 c-119 -33 -213 -138 -243 -272 -35 -157 8 -276 121 -337
33 -18 56 -22 130 -22 102 1 151 19 218 84 35 32 84 108 75 116 -2 2 -36 8
-77 14 l-74 12 -29 -36 c-56 -68 -125 -84 -175 -41 -27 23 -28 28 -27 108 0
118 42 205 116 244 68 35 127 8 152 -69 5 -16 13 -18 63 -12 101 11 104 12 97
43 -17 70 -58 123 -119 155 -50 25 -161 32 -228 13z"/>
<path d="M24515 9213 c-117 -26 -208 -112 -247 -235 -48 -156 0 -304 120 -371
131 -73 317 -30 398 93 15 22 24 43 21 46 -3 4 -36 12 -72 20 l-67 14 -28 -30
c-50 -53 -112 -64 -168 -30 -33 20 -62 71 -62 110 0 19 6 20 214 20 l213 0 6
56 c7 64 -5 150 -26 191 -24 44 -78 91 -126 108 -41 14 -130 18 -176 8z m147
-162 c19 -22 28 -42 28 -66 l0 -35 -131 0 -130 0 6 23 c10 34 38 70 76 95 48
34 112 26 151 -17z"/>
<path d="M26745 9196 c-27 -14 -60 -33 -73 -42 l-24 -17 7 36 7 37 -79 0 -80
0 -33 -157 c-17 -87 -47 -229 -65 -315 l-33 -158 84 0 83 0 10 38 c5 20 22 98
36 172 37 187 67 250 137 286 54 28 108 6 108 -44 0 -18 -68 -357 -86 -429 -6
-23 -5 -23 80 -23 47 0 86 3 86 6 0 29 76 349 91 384 40 90 116 138 175 111
16 -7 24 -19 24 -36 0 -13 -20 -119 -45 -235 -25 -116 -45 -215 -45 -220 0 -6
36 -10 83 -10 l82 0 48 223 c26 122 47 244 47 271 0 91 -62 146 -164 146 -51
0 -156 -49 -186 -87 -11 -14 -21 -24 -23 -22 -1 2 -9 17 -17 33 -39 75 -144
98 -235 52z"/>
<path d="M28552 9203 c-18 -9 -52 -38 -76 -64 l-43 -48 12 60 13 60 -81 -3
-80 -3 -64 -305 c-34 -168 -63 -308 -63 -312 0 -5 38 -8 84 -8 l83 0 22 108
c50 243 81 314 157 358 34 20 54 25 82 21 l38 -5 31 70 32 69 -25 9 c-37 14
-85 12 -122 -7z"/>
<path d="M28890 9205 c-57 -18 -124 -75 -151 -127 -11 -22 -19 -41 -17 -43 2
-1 40 -6 85 -9 77 -7 82 -6 88 13 16 50 115 67 161 28 22 -19 25 -28 20 -55
-9 -37 -13 -38 -136 -52 -187 -21 -254 -58 -279 -154 -23 -92 11 -174 89 -213
69 -35 151 -27 223 21 39 27 47 25 47 -11 0 -22 3 -23 83 -23 l82 0 -3 73 c-3
53 5 110 27 215 17 78 31 158 31 178 0 77 -52 140 -135 163 -54 15 -160 13
-215 -4z m146 -366 c-11 -59 -38 -100 -77 -119 -52 -27 -94 -26 -124 5 -39 38
-32 76 18 102 25 12 129 37 181 42 5 1 6 -13 2 -30z"/>
<path d="M29597 9206 c-119 -33 -213 -138 -243 -272 -35 -157 8 -276 121 -337
33 -18 56 -22 130 -22 102 1 151 19 218 84 35 32 84 108 75 116 -2 2 -36 8
-77 14 l-74 12 -29 -36 c-56 -68 -125 -84 -175 -41 -27 23 -28 28 -27 108 0
118 42 205 116 244 68 35 127 8 152 -69 5 -16 13 -18 63 -12 101 11 104 12 97
43 -17 70 -58 123 -119 155 -50 25 -161 32 -228 13z"/>
<path d="M30275 9213 c-117 -26 -208 -112 -247 -235 -48 -156 0 -304 120 -371
131 -73 317 -30 398 93 15 22 24 43 21 46 -3 4 -36 12 -72 20 l-67 14 -28 -30
c-50 -53 -112 -64 -168 -30 -33 20 -62 71 -62 110 0 19 6 20 214 20 l213 0 6
56 c7 64 -5 150 -26 191 -24 44 -78 91 -126 108 -41 14 -130 18 -176 8z m147
-162 c19 -22 28 -42 28 -66 l0 -35 -131 0 -130 0 6 23 c10 34 38 70 76 95 48
34 112 26 151 -17z"/>
<path d="M32415 9213 c-117 -26 -208 -112 -247 -235 -48 -156 0 -304 120 -371
131 -73 317 -30 398 93 15 22 24 43 21 46 -3 4 -36 12 -72 20 l-67 14 -28 -30
c-50 -53 -112 -64 -168 -30 -33 20 -62 71 -62 110 0 19 6 20 214 20 l213 0 6
56 c7 64 -5 150 -26 191 -24 44 -78 91 -126 108 -41 14 -130 18 -176 8z m147
-162 c19 -22 28 -42 28 -66 l0 -35 -131 0 -130 0 6 23 c10 34 38 70 76 95 48
34 112 26 151 -17z"/>
<path d="M34380 9205 c-57 -18 -124 -75 -151 -127 -11 -22 -19 -41 -17 -43 2
-1 40 -6 85 -9 77 -7 82 -6 88 13 16 50 115 67 161 28 22 -19 25 -28 20 -55
-9 -37 -13 -38 -136 -52 -187 -21 -254 -58 -279 -154 -23 -92 11 -174 89 -213
69 -35 151 -27 223 21 39 27 47 25 47 -11 0 -22 3 -23 83 -23 l82 0 -3 73 c-3
53 5 110 27 215 17 78 31 158 31 178 0 77 -52 140 -135 163 -54 15 -160 13
-215 -4z m146 -366 c-11 -59 -38 -100 -77 -119 -52 -27 -94 -26 -124 5 -39 38
-32 76 18 102 25 12 129 37 181 42 5 1 6 -13 2 -30z"/>
<path d="M35043 9204 c-62 -22 -131 -89 -164 -157 -51 -109 -61 -255 -23 -345
50 -120 189 -156 319 -83 l54 30 -19 -66 c-24 -87 -52 -115 -122 -120 -62 -5
-100 12 -108 47 -5 22 -14 26 -80 36 -111 18 -104 22 -97 -41 8 -76 31 -111
97 -143 51 -25 64 -27 170 -26 200 1 258 48 309 250 15 61 121 602 121 620 0
2 -36 4 -79 4 l-79 0 -7 -42 c-10 -61 -12 -62 -48 -21 -60 68 -151 89 -244 57z
m175 -134 c67 -41 79 -144 29 -253 -71 -155 -247 -134 -247 29 0 71 25 148 62
190 51 58 99 68 156 34z"/>
<path d="M36157 9206 c-119 -33 -213 -138 -243 -272 -35 -157 8 -276 121 -337
33 -18 56 -22 130 -22 102 1 151 19 218 84 35 32 84 108 75 116 -2 2 -36 8
-77 14 l-74 12 -29 -36 c-56 -68 -125 -84 -175 -41 -27 23 -28 28 -27 108 0
118 42 205 116 244 68 35 127 8 152 -69 5 -16 13 -18 63 -12 101 11 104 12 97
43 -17 70 -58 123 -119 155 -50 25 -161 32 -228 13z"/>
<path d="M14870 9204 c0 -4 -23 -106 -51 -228 -55 -238 -58 -295 -22 -344 62
-85 191 -81 305 10 33 25 39 28 35 12 -3 -10 -9 -31 -13 -46 l-6 -28 81 0 c45
0 81 2 81 4 0 3 29 130 64 283 35 153 67 293 71 311 l7 32 -86 0 c-81 0 -86
-1 -91 -22 -3 -13 -19 -84 -35 -158 -40 -178 -56 -225 -93 -266 -59 -68 -121
-82 -157 -37 -24 31 -27 9 36 275 24 103 44 192 44 198 0 6 -34 10 -85 10 -47
0 -85 -3 -85 -6z"/>
<path d="M21945 9198 c-4 -15 -125 -604 -125 -612 0 -3 37 -6 83 -6 l84 0 52
258 c29 141 59 283 66 315 l13 57 -84 0 c-59 0 -86 -4 -89 -12z"/>
<path d="M35675 9198 c-4 -15 -125 -604 -125 -612 0 -3 37 -6 83 -6 l84 0 52
258 c29 141 59 283 66 315 l13 57 -84 0 c-59 0 -86 -4 -89 -12z"/>
<path d="M24920 8678 c-7 -40 -15 -79 -17 -85 -4 -9 7 -13 35 -13 l41 0 -10
-30 c-10 -28 -54 -73 -79 -82 -6 -2 -15 -20 -19 -41 -8 -33 -7 -37 10 -37 29
0 90 28 117 53 36 34 61 90 82 185 29 131 34 122 -63 122 l-84 0 -13 -72z"/>
</g>
</svg>
